<svg width="16" height="17" viewBox="0 0 16 17" fill="none" xmlns="http://www.w3.org/2000/svg">
<path d="M5.96438 13.5412C5.44312 12.8956 4.97 12.3094 4.49625 11.7237C3.90937 10.9981 3.3175 10.2762 2.73562 9.54561C2.20312 8.87686 2.12187 8.11624 2.60062 7.54936C2.84187 7.26436 3.20125 7.04374 3.55 6.89374C4.03187 6.68624 4.55 6.55374 5.06063 6.42186C6.44375 6.06561 7.73188 5.47686 9.01 4.85811C9.1575 4.78686 9.31688 4.73624 9.475 4.69124C10.0675 4.52374 10.605 4.77811 10.8206 5.32061C11.0319 5.85249 10.815 6.47186 10.2775 6.71686C9.11938 7.24499 7.9475 7.74311 6.78125 8.25374C6.71812 8.28124 6.655 8.30936 6.56125 8.35061C7.11375 9.03749 7.65 9.70436 8.2 10.3875C8.72437 9.99249 9.2225 9.60499 9.735 9.23686C9.97687 9.06311 10.2344 8.90249 10.5037 8.77624C11.2913 8.40686 12.0856 8.05061 12.8837 7.70374C13.1088 7.60624 13.3525 7.52311 13.5944 7.49874C14.0706 7.45061 14.5325 7.80061 14.675 8.26936C14.825 8.76186 14.6237 9.28999 14.165 9.55624C13.3588 10.0256 12.5406 10.4737 11.7406 10.9537C11.415 11.1487 11.1031 11.3787 10.8231 11.6344C10.1656 12.235 9.53062 12.8612 8.82 13.5406C9.00125 13.5406 9.10688 13.5406 9.21313 13.5406C11.0806 13.5406 12.9481 13.5406 14.8156 13.5406C14.9088 13.5406 15.025 13.5106 15.0906 13.5544C15.1987 13.6269 15.3544 13.7569 15.3444 13.8462C15.3319 13.9612 15.1869 14.0756 15.0756 14.1594C15.0219 14.2 14.915 14.1706 14.8319 14.1706C10.2981 14.1706 5.76375 14.1706 1.23 14.1706C1.1675 14.1706 1.10562 14.1706 1.04312 14.1694C0.831875 14.1662 0.6975 14.0562 0.7025 13.8494C0.7075 13.6425 0.84875 13.5406 1.0575 13.5412C1.16125 13.5412 1.265 13.5412 1.36875 13.5412C2.8725 13.5412 4.37562 13.5412 5.96375 13.5412H5.96438ZM7.43188 13.54C7.75313 13.5337 8.0625 13.3894 8.32812 13.1331C9.09688 12.3919 9.8675 11.6519 10.6431 10.9175C10.7694 10.7981 10.9144 10.6919 11.0644 10.6044C11.9694 10.0794 12.8794 9.56248 13.7863 9.04123C14.0656 8.88061 14.1562 8.63999 14.0381 8.39061C13.9294 8.16124 13.705 8.12561 13.4031 8.15999C13.155 8.18811 13.0063 8.35749 12.8019 8.43686C11.2269 9.04874 9.77125 9.86186 8.48438 10.9675C8.16563 11.2412 8.04313 11.2069 7.77 10.8687C7.14563 10.0937 6.52125 9.31874 5.89875 8.54186C5.58 8.14436 5.64187 8.00124 6.1175 7.80499C7.39812 7.27499 8.67125 6.72624 9.94312 6.17561C10.2281 6.05249 10.3212 5.81999 10.2306 5.57124C10.135 5.30874 9.91438 5.24999 9.59688 5.28311C9.34813 5.30936 9.195 5.46374 9.00313 5.56561C7.36313 6.43561 5.59625 6.95624 3.81875 7.44311C2.95 7.68124 2.6625 8.48811 3.21812 9.16874C4.24687 10.4287 5.27063 11.6925 6.3 12.9519C6.57875 13.2931 6.92062 13.5312 7.4325 13.5394L7.43188 13.54Z" fill="#FB8708"/>
<path d="M1.66312 4.44563C1.6675 3.46813 2.45125 2.6975 3.43312 2.70625C4.38875 2.71438 5.1675 3.50438 5.16312 4.46125C5.15875 5.43 4.36312 6.20938 3.38625 6.20125C2.42812 6.19313 1.65937 5.41 1.66312 4.44563ZM2.29875 4.43125C2.29 5.06188 2.77937 5.56688 3.40187 5.57063C4.0075 5.57438 4.51062 5.08438 4.52687 4.47563C4.54312 3.86188 4.035 3.34125 3.41562 3.33688C2.80437 3.3325 2.30687 3.81938 2.29875 4.43063V4.43125Z" fill="#FB8708"/>
</svg>
