<svg width="18" height="18" viewBox="0 0 18 18" fill="none" xmlns="http://www.w3.org/2000/svg">
<path fill-rule="evenodd" clip-rule="evenodd" d="M9.00477 2.98682C6.50659 2.98682 4.48142 5.01199 4.48142 7.51017C4.48142 10.0083 6.50659 12.0335 9.00477 12.0335C11.5029 12.0335 13.5281 10.0083 13.5281 7.51017C13.5281 5.01199 11.5029 2.98682 9.00477 2.98682ZM3.57675 7.51017C3.57675 4.51236 6.00696 2.08215 9.00477 2.08215C12.0026 2.08215 14.4328 4.51236 14.4328 7.51017C14.4328 10.508 12.0026 12.9382 9.00477 12.9382C6.00696 12.9382 3.57675 10.508 3.57675 7.51017Z" fill="#FB8708"/>
<path fill-rule="evenodd" clip-rule="evenodd" d="M9.00477 4.79616C7.50586 4.79616 6.29076 6.01126 6.29076 7.51017C6.29076 9.00907 7.50586 10.2242 9.00477 10.2242C10.5037 10.2242 11.7188 9.00907 11.7188 7.51017C11.7188 6.01126 10.5037 4.79616 9.00477 4.79616ZM5.38609 7.51017C5.38609 5.51163 7.00623 3.89149 9.00477 3.89149C11.0033 3.89149 12.6234 5.51163 12.6234 7.51017C12.6234 9.50871 11.0033 11.1288 9.00477 11.1288C7.00623 11.1288 5.38609 9.50871 5.38609 7.51017Z" fill="#FB8708"/>
<path fill-rule="evenodd" clip-rule="evenodd" d="M12.742 10.1342C12.9666 10.0248 13.2373 10.1181 13.3467 10.3427L15.0656 13.8709C15.1319 14.0069 15.1257 14.1671 15.0492 14.2977C14.9728 14.4282 14.8361 14.5119 14.685 14.5206L12.5155 14.6458L11.0564 16.23C10.9545 16.3407 10.8043 16.3934 10.6556 16.3708C10.5069 16.3482 10.3792 16.2531 10.3148 16.1172L8.68644 12.6795C8.5795 12.4537 8.67583 12.184 8.9016 12.0771C9.12737 11.9701 9.39708 12.0664 9.50403 12.2922L10.8453 15.1238L11.9741 13.8983C12.0536 13.8119 12.1636 13.7599 12.2808 13.7531L13.9548 13.6566L12.5334 10.7389C12.424 10.5143 12.5174 10.2436 12.742 10.1342Z" fill="#FB8708"/>
<path fill-rule="evenodd" clip-rule="evenodd" d="M5.26103 10.1763C5.48734 10.2821 5.58502 10.5513 5.47922 10.7776L4.13319 13.6566L5.77452 13.7532C5.89151 13.76 6.00127 13.8121 6.08067 13.8983L7.20946 15.1238L8.55074 12.2922C8.65768 12.0664 8.9274 11.9701 9.15317 12.0771C9.37894 12.184 9.47527 12.4537 9.36832 12.6795L7.73992 16.1172C7.67554 16.2531 7.54783 16.3482 7.39916 16.3708C7.25049 16.3934 7.1003 16.3407 6.99842 16.23L5.53902 14.6455L3.41449 14.5206C3.26481 14.5118 3.12921 14.4294 3.05247 14.3006C2.97572 14.1717 2.96778 14.0133 3.03129 13.8774L4.65969 10.3945C4.7655 10.1682 5.03473 10.0705 5.26103 10.1763Z" fill="#FB8708"/>
</svg>
