<svg width="73" height="73" viewBox="0 0 73 73" fill="none" xmlns="http://www.w3.org/2000/svg">
<rect width="73" height="73" rx="9.74359" fill="white"/>
<path fill-rule="evenodd" clip-rule="evenodd" d="M34.4532 26.8279C34.4532 28.0871 33.4347 29.1078 32.1784 29.1078C30.9221 29.1078 29.9037 28.0871 29.9037 26.8279C29.9037 25.5687 30.9221 24.548 32.1784 24.548C33.4347 24.548 34.4532 25.5687 34.4532 26.8279ZM32.9424 26.8279C32.9424 27.2508 32.6003 27.5936 32.1784 27.5936C31.7565 27.5936 31.4145 27.2508 31.4145 26.8279C31.4145 26.405 31.7565 26.0622 32.1784 26.0622C32.6003 26.0622 32.9424 26.405 32.9424 26.8279Z" fill="#2D2D2D"/>
<path fill-rule="evenodd" clip-rule="evenodd" d="M21.2084 37.4655C19.9366 38.861 19.2531 41.5536 21.5643 43.9969H21.5628C20.087 44.8924 19.9441 46.2924 20.0141 47.788C20.0558 48.6522 20.2687 48.9119 21.1116 48.9119C29.5165 48.9163 37.92 48.9163 46.3234 48.9119C47.129 48.9104 47.3703 48.3059 47.3703 47.8283C47.3536 47.1979 47.3225 46.4494 47.2689 45.8287C47.2457 45.5602 46.9421 45.1476 46.9421 45.1476H49.6591C49.6591 45.8558 49.6582 46.5586 49.6574 47.2576C49.6552 48.9422 49.6531 50.6047 49.6636 52.2671C49.6725 53.8164 50.8341 54.997 52.3054 55C53.7291 55.003 54.9442 53.8537 54.9651 52.3507C55.0053 49.4029 55.0187 46.4536 54.9621 43.5073C54.9204 41.3401 53.2898 39.8222 51.0575 39.7595C49.9466 39.7297 48.8327 39.7207 47.7217 39.7595C45.7024 39.8312 43.7426 39.4983 41.7829 39.052C40.3175 38.7177 38.8298 38.4565 37.3392 38.2729C36.7101 38.1953 36.0691 38.2141 35.4029 38.2338C35.0961 38.2428 34.7839 38.252 34.4651 38.252C34.4651 37.8324 34.4668 37.4205 34.4685 37.0141C34.4728 36.0172 34.4769 35.0536 34.4546 34.0908C34.4412 33.5385 34.5708 33.2356 35.1292 32.9729C38.1984 31.5325 39.7025 28.034 38.7033 24.8101C37.6832 21.516 34.4844 19.5518 31.0131 20.0876C27.7995 20.5832 25.2739 23.5698 25.3602 26.9101C25.4332 29.7355 26.8286 31.7669 29.3393 33.0505C29.5776 33.1714 29.8888 33.4654 29.8918 33.6818C29.9196 36.344 29.918 39.0062 29.9164 41.6716C29.916 42.2937 29.9156 42.9161 29.9156 43.5387H28.1405C29.6357 40.4909 29.2946 38.2117 27.1472 36.749C25.2843 35.4789 22.7318 35.7938 21.2084 37.4655ZM31.441 33.8909C31.4449 33.8231 31.4489 33.7536 31.4525 33.6818H32.891C32.8949 33.7646 32.9 33.8481 32.9052 33.932C32.9159 34.1051 32.9267 34.28 32.9267 34.455C32.9297 35.8908 32.9297 37.3281 32.9297 38.764C32.9297 39.3311 33.1293 39.7953 33.7681 39.7401C36.2428 39.5281 38.6247 40.0052 41.0071 40.4823C42.0798 40.6971 43.1526 40.912 44.2341 41.064C45.7907 41.2834 47.3796 41.2848 48.9654 41.2863C49.4838 41.2868 50.0019 41.2873 50.5184 41.2953C52.6881 41.3297 53.4506 42.0715 53.4506 44.2551V51.6089C53.4506 51.6619 53.451 51.7148 53.4514 51.7678C53.4526 51.9132 53.4538 52.0585 53.4461 52.2029C53.4014 53.0283 52.9979 53.4627 52.2935 53.4552C51.5981 53.4462 51.1707 52.9895 51.1662 52.1746C51.1576 50.5652 51.1591 48.9558 51.1606 47.3464C51.1611 46.7274 51.1617 46.1084 51.1617 45.4894C51.1617 44.2138 50.5253 43.576 49.2526 43.576H32.6498C31.6192 43.576 31.4227 43.3864 31.4227 42.3819C31.4197 39.7088 31.4212 37.0341 31.4227 34.3594C31.4227 34.2058 31.4316 34.053 31.441 33.8909ZM37.497 26.8071C37.5075 29.7474 35.1203 32.1445 32.1851 32.1445V32.143C29.2514 32.143 26.8464 29.734 26.8598 26.8116C26.8732 23.8802 29.2931 21.4832 32.2164 21.5085C35.1322 21.5339 37.4866 23.8981 37.497 26.8071ZM43.8692 45.0879C45.4105 45.0924 45.9511 45.7044 45.7783 47.3462H21.6879C21.2605 46.0014 21.956 45.0894 23.4169 45.0894C28.0752 45.0862 32.7335 45.0868 37.3919 45.0874C39.2546 45.0877 41.1174 45.0879 42.9802 45.0879H43.8692ZM24.5516 37.4878C26.2895 37.4714 27.6029 38.7685 27.6119 40.5133C27.6208 42.258 26.3178 43.576 24.5859 43.576C22.8599 43.5745 21.5435 42.2431 21.5569 40.5103C21.5688 38.7998 22.8525 37.5043 24.5516 37.4878Z" fill="#2D2D2D"/>
</svg>
