<svg width="15" height="16" viewBox="0 0 15 16" fill="none" xmlns="http://www.w3.org/2000/svg">
<path fill-rule="evenodd" clip-rule="evenodd" d="M6.06593 3.68227C6.06593 4.20953 5.6385 4.63697 5.11123 4.63697C4.58396 4.63697 4.15652 4.20953 4.15652 3.68227C4.15652 3.155 4.58396 2.72756 5.11123 2.72756C5.6385 2.72756 6.06593 3.155 6.06593 3.68227ZM5.43185 3.68227C5.43185 3.85934 5.2883 4.00288 5.11123 4.00288C4.93416 4.00288 4.79061 3.85934 4.79061 3.68227C4.79061 3.50519 4.93416 3.36165 5.11123 3.36165C5.2883 3.36165 5.43185 3.50519 5.43185 3.68227Z" fill="#FB8708"/>
<path fill-rule="evenodd" clip-rule="evenodd" d="M0.507166 8.13669C-0.0265836 8.72106 -0.313459 9.84856 0.656541 10.8717H0.655916C0.0365413 11.2467 -0.0234587 11.8329 0.00591633 12.4592C0.0234163 12.8211 0.112791 12.9298 0.466541 12.9298C3.99404 12.9317 7.52092 12.9317 11.0478 12.9298C11.3859 12.9292 11.4872 12.6761 11.4872 12.4761C11.4802 12.2121 11.4671 11.8987 11.4446 11.6387C11.4349 11.5263 11.3075 11.3536 11.3075 11.3536H12.4478C12.4478 11.6501 12.4474 11.9444 12.447 12.2371C12.4461 12.9425 12.4452 13.6387 12.4497 14.3348C12.4534 14.9836 12.9409 15.4779 13.5584 15.4792C14.1559 15.4804 14.6659 14.9992 14.6747 14.3698C14.6915 13.1354 14.6972 11.9004 14.6734 10.6667C14.6559 9.75919 13.9715 9.12356 13.0347 9.09731C12.5684 9.08481 12.1009 9.08106 11.6347 9.09731C10.7872 9.12731 9.96467 8.98794 9.14217 8.80107C8.52717 8.66107 7.90279 8.55169 7.27717 8.47482C7.01313 8.44229 6.74412 8.4502 6.46451 8.45843C6.33574 8.46221 6.20473 8.46606 6.07092 8.46606C6.07092 8.29034 6.07165 8.11786 6.07237 7.9477C6.07415 7.53023 6.07587 7.12674 6.06654 6.72356C6.06092 6.49231 6.11529 6.36544 6.34967 6.25544C7.63779 5.65231 8.26904 4.18731 7.84967 2.83731C7.42154 1.45794 6.07904 0.635439 4.62217 0.859815C3.27342 1.06731 2.21342 2.31794 2.24967 3.71669C2.28029 4.89981 2.86592 5.75044 3.91967 6.28794C4.01967 6.33856 4.15029 6.46169 4.15154 6.55231C4.1632 7.66709 4.16253 8.78187 4.16186 9.89798C4.1617 10.1585 4.16154 10.4191 4.16154 10.6798H3.41654C4.04404 9.40356 3.90092 8.44919 2.99967 7.83669C2.21779 7.30481 1.14654 7.43669 0.507166 8.13669ZM4.80172 6.63986C4.80337 6.61146 4.80507 6.58238 4.80654 6.55231H5.41029C5.41192 6.58699 5.41409 6.62193 5.41626 6.65706C5.42075 6.72955 5.42529 6.80281 5.42529 6.87606C5.42654 7.47731 5.42654 8.07919 5.42654 8.68044C5.42654 8.91794 5.51029 9.11231 5.77842 9.08919C6.81702 9.00041 7.8167 9.20018 8.81659 9.39998C9.2668 9.48995 9.71705 9.57992 10.1709 9.64356C10.8242 9.73542 11.4911 9.73603 12.1566 9.73665C12.3742 9.73685 12.5916 9.73705 12.8084 9.74044C13.719 9.75481 14.039 10.0654 14.039 10.9798V14.0592C14.039 14.0814 14.0392 14.1035 14.0394 14.1257C14.0399 14.1866 14.0404 14.2475 14.0372 14.3079C14.0184 14.6536 13.849 14.8354 13.5534 14.8323C13.2615 14.8286 13.0822 14.6373 13.0803 14.2961C13.0767 13.6221 13.0773 12.9482 13.0779 12.2743C13.0782 12.0151 13.0784 11.7559 13.0784 11.4967C13.0784 10.9625 12.8113 10.6954 12.2772 10.6954H5.30904C4.87654 10.6954 4.79404 10.6161 4.79404 10.1954C4.79279 9.07606 4.79342 7.95606 4.79404 6.83606C4.79404 6.77174 4.79777 6.70773 4.80172 6.63986ZM7.34342 3.67356C7.34779 4.90481 6.34592 5.90856 5.11404 5.90856V5.90794C3.88279 5.90794 2.87342 4.89919 2.87904 3.67544C2.88467 2.44794 3.90029 1.44419 5.12717 1.45481C6.35092 1.46544 7.33904 2.45544 7.34342 3.67356ZM10.0178 11.3286C10.6647 11.3304 10.8915 11.5867 10.819 12.2742H0.708416C0.529041 11.7111 0.820916 11.3292 1.43404 11.3292C3.38912 11.3279 5.3442 11.3281 7.29929 11.3284C8.08108 11.3285 8.86287 11.3286 9.64467 11.3286H10.0178ZM1.91029 8.14606C2.63967 8.13919 3.19092 8.68231 3.19467 9.41294C3.19842 10.1436 2.65154 10.6954 1.92467 10.6954C1.20029 10.6948 0.647791 10.1373 0.653416 9.41169C0.658416 8.69544 1.19717 8.15294 1.91029 8.14606Z" fill="#FB8708"/>
</svg>
