<svg width="73" height="73" viewBox="0 0 73 73" fill="none" xmlns="http://www.w3.org/2000/svg">
<rect width="73" height="73" rx="9.74359" fill="white"/>
<path d="M36.4528 35.6215C37.5497 36.4325 38.5684 37.1887 39.5903 37.9419C40.6419 38.7153 41.1216 39.6809 40.8622 41.0325C40.3075 43.9325 39.8325 46.8481 39.3106 49.7544C39.0325 51.309 37.695 52.2747 36.1466 52.0715C34.695 51.8794 33.6356 50.5481 33.845 48.9887C34.1309 46.859 34.5059 44.7403 34.8934 42.6247C34.9981 42.0559 34.8809 41.7372 34.3887 41.4169C32.7169 40.3262 31.0637 39.2075 29.4372 38.0512C28.3497 37.2778 27.5591 36.2809 27.4387 34.8715C27.3012 33.27 28.1372 32.1419 29.2684 31.2044C31.4044 29.434 33.5575 27.6825 35.7481 25.9809C37.7559 24.4215 39.7325 24.7372 41.2747 26.7794C42.5091 28.4137 43.72 30.0669 44.9825 31.6778C45.1825 31.9325 45.5966 32.1419 45.92 32.1544C47.3184 32.2059 48.72 32.1715 50.1216 32.1778C51.7919 32.184 52.8856 33.1309 52.8919 34.5684C52.8981 36.0215 51.82 36.97 50.1497 36.9731C48.2825 36.9762 46.4137 36.9387 44.5481 36.9872C43.4497 37.0153 42.6575 36.5387 42.0169 35.7294C41.245 34.7559 40.495 33.7653 39.7075 32.7434C38.6247 33.7012 37.5794 34.6262 36.4528 35.6247V35.6215ZM47.3216 35.3872C48.2809 35.3872 49.2419 35.384 50.2012 35.3872C50.7716 35.3903 51.2856 35.2747 51.2903 34.5809C51.295 33.8669 50.7606 33.7887 50.1997 33.7903C48.6169 33.7919 47.0341 33.7715 45.4528 33.7997C44.8262 33.8106 44.3919 33.6137 44.0122 33.0919C42.6997 31.2887 41.3419 29.52 40.0012 27.7387C38.9716 26.3715 37.8247 26.2809 36.5012 27.3731C34.5012 29.0215 32.4856 30.6528 30.4356 32.2387C28.6278 33.6387 28.5544 35.6403 30.3075 36.7887C32.2356 38.0528 34.1341 39.3622 36.0606 40.6294C36.5637 40.9606 36.7341 41.3559 36.6247 41.9419C36.3762 43.2653 36.0825 44.5887 35.9575 45.9262C35.8544 47.0294 35.2825 48.0356 35.4012 49.1715C35.4887 50.0169 35.8309 50.4684 36.5044 50.509C37.1747 50.5497 37.6216 50.1403 37.7684 49.3137C38.2794 46.4575 38.7762 43.5981 39.2997 40.745C39.4216 40.0778 39.245 39.6184 38.6762 39.2215C37.3997 38.3325 36.1559 37.3981 34.9091 36.4669C34.2403 35.9669 34.2122 35.4934 34.8278 34.9403C36.2372 33.6747 37.6559 32.4215 39.0809 31.1747C39.7434 30.595 40.0872 30.6262 40.6231 31.3137C41.5169 32.459 42.3591 33.645 43.2997 34.7497C43.5762 35.0747 44.095 35.3184 44.5278 35.3606C45.4528 35.4528 46.3934 35.3887 47.3262 35.3887L47.3216 35.3872Z" fill="#2D2D2D"/>
<path d="M32.9716 46.5637C32.9544 50.5294 29.7013 53.7512 25.7669 53.6981C21.8247 53.645 18.6419 50.4512 18.6372 46.5434C18.6325 42.6137 21.8966 39.3497 25.8247 39.3591C29.7778 39.3684 32.9888 42.6059 32.9716 46.5637ZM25.8294 40.9747C22.7247 40.9669 20.2403 43.445 20.2466 46.545C20.2528 49.62 22.6981 52.0778 25.7684 52.0966C28.8903 52.1153 31.3731 49.67 31.3825 46.5669C31.3934 43.4497 28.9434 40.9825 25.8294 40.9747Z" fill="#2D2D2D"/>
<path d="M40.9747 46.5356C40.9747 42.5762 44.2091 39.3419 48.1481 39.3606C52.0888 39.3794 55.3372 42.6497 55.3091 46.5731C55.2809 50.4872 52.0794 53.6762 48.1513 53.7012C44.2059 53.7262 40.9747 50.4997 40.9747 46.5372V46.5356ZM48.1309 52.0966C51.2372 52.0966 53.7169 49.6106 53.6997 46.5137C53.6825 43.4372 51.2403 40.9919 48.1638 40.9762C45.0466 40.9591 42.57 43.4106 42.5638 46.52C42.5575 49.6341 45.0153 52.0966 48.1294 52.0966H48.1309Z" fill="#2D2D2D"/>
<path d="M42.5653 24.5762C42.581 22.1809 44.5403 20.2419 46.9419 20.2481C49.3794 20.2528 51.32 22.2216 51.3028 24.6684C51.2857 27.0575 49.3122 29.0169 46.9263 29.0106C44.506 29.0059 42.5497 27.0169 42.5638 24.5762H42.5653ZM46.945 21.8497C45.3747 21.845 44.1278 23.0887 44.1419 24.6481C44.1575 26.17 45.395 27.3981 46.9216 27.4059C48.4716 27.4137 49.7419 26.1403 49.7263 24.5934C49.7107 23.0653 48.4841 21.8544 46.945 21.8497Z" fill="#2D2D2D"/>
</svg>
