<svg width="16" height="17" viewBox="0 0 16 17" fill="none" xmlns="http://www.w3.org/2000/svg">
<path d="M7.76062 8.07437C8.19937 8.39874 8.60687 8.70124 9.01562 9.00249C9.43625 9.31187 9.62813 9.69812 9.52437 10.2387C9.3025 11.3987 9.1125 12.565 8.90375 13.7275C8.7925 14.3494 8.2575 14.7356 7.63812 14.6544C7.0575 14.5775 6.63375 14.045 6.7175 13.4212C6.83188 12.5694 6.98187 11.7219 7.13687 10.8756C7.17875 10.6481 7.13187 10.5206 6.935 10.3925C6.26625 9.95624 5.605 9.50874 4.95437 9.04624C4.51937 8.73687 4.20312 8.33812 4.155 7.77437C4.1 7.13374 4.43437 6.68249 4.88687 6.30749C5.74125 5.59937 6.6025 4.89874 7.47875 4.21812C8.28188 3.59437 9.0725 3.72062 9.68937 4.53749C10.1831 5.19124 10.6675 5.85249 11.1725 6.49687C11.2525 6.59874 11.4181 6.68249 11.5475 6.68749C12.1069 6.70812 12.6675 6.69437 13.2281 6.69687C13.8962 6.69937 14.3338 7.07812 14.3362 7.65312C14.3387 8.23437 13.9075 8.61374 13.2394 8.61499C12.4925 8.61624 11.745 8.60124 10.9987 8.62062C10.5594 8.63187 10.2425 8.44124 9.98625 8.11749C9.6775 7.72812 9.3775 7.33187 9.0625 6.92312C8.62937 7.30624 8.21125 7.67624 7.76062 8.07562V8.07437ZM12.1081 7.98062C12.4919 7.98062 12.8762 7.97937 13.26 7.98062C13.4881 7.98187 13.6937 7.93562 13.6956 7.65812C13.6975 7.37249 13.4837 7.34124 13.2594 7.34187C12.6262 7.34249 11.9931 7.33437 11.3606 7.34562C11.11 7.34999 10.9363 7.27124 10.7844 7.06249C10.2594 6.34124 9.71625 5.63374 9.18 4.92124C8.76813 4.37437 8.30937 4.33812 7.78 4.77499C6.98 5.43437 6.17375 6.08687 5.35375 6.72124C4.63063 7.28124 4.60125 8.08187 5.3025 8.54124C6.07375 9.04687 6.83313 9.57062 7.60375 10.0775C7.805 10.21 7.87312 10.3681 7.82937 10.6025C7.73 11.1319 7.6125 11.6612 7.5625 12.1962C7.52125 12.6375 7.2925 13.04 7.34 13.4944C7.375 13.8325 7.51187 14.0131 7.78125 14.0294C8.04937 14.0456 8.22812 13.8819 8.28687 13.5512C8.49125 12.4087 8.69 11.265 8.89937 10.1237C8.94812 9.85687 8.8775 9.67312 8.65 9.51437C8.13937 9.15874 7.64187 8.78499 7.14312 8.41249C6.87562 8.21249 6.86437 8.02312 7.11062 7.80187C7.67437 7.29562 8.24188 6.79437 8.81188 6.29562C9.07688 6.06374 9.21438 6.07624 9.42875 6.35124C9.78625 6.80937 10.1231 7.28374 10.4994 7.72562C10.61 7.85562 10.8175 7.95312 10.9906 7.96999C11.3606 8.00687 11.7369 7.98124 12.11 7.98124L12.1081 7.98062Z" fill="#FB8708"/>
<path d="M6.36812 12.4512C6.36125 14.0375 5.06 15.3262 3.48625 15.305C1.90937 15.2837 0.63625 14.0062 0.634375 12.4431C0.6325 10.8712 1.93812 9.56562 3.50937 9.56937C5.09062 9.57312 6.375 10.8681 6.36812 12.4512ZM3.51125 10.2156C2.26937 10.2125 1.27562 11.2037 1.27812 12.4437C1.28062 13.6737 2.25875 14.6569 3.48687 14.6644C4.73562 14.6719 5.72875 13.6937 5.7325 12.4525C5.73687 11.2056 4.75688 10.2187 3.51125 10.2156Z" fill="#FB8708"/>
<path d="M9.56938 12.44C9.56938 10.8562 10.8631 9.56248 12.4388 9.56998C14.015 9.57748 15.3144 10.8856 15.3031 12.455C15.2919 14.0206 14.0112 15.2962 12.44 15.3062C10.8619 15.3162 9.56938 14.0256 9.56938 12.4406V12.44ZM12.4319 14.6644C13.6744 14.6644 14.6663 13.67 14.6594 12.4312C14.6525 11.2006 13.6756 10.2225 12.445 10.2162C11.1981 10.2094 10.2075 11.19 10.205 12.4337C10.2025 13.6794 11.1856 14.6644 12.4312 14.6644H12.4319Z" fill="#FB8708"/>
<path d="M10.2056 3.65624C10.2119 2.69812 10.9956 1.92249 11.9562 1.92499C12.9312 1.92687 13.7075 2.71437 13.7006 3.69312C13.6937 4.64874 12.9044 5.43249 11.95 5.42999C10.9819 5.42812 10.1994 4.63249 10.205 3.65624H10.2056ZM11.9575 2.56562C11.3294 2.56374 10.8306 3.06124 10.8362 3.68499C10.8425 4.29374 11.3375 4.78499 11.9481 4.78812C12.5681 4.79124 13.0762 4.28187 13.07 3.66312C13.0637 3.05187 12.5731 2.56749 11.9575 2.56562Z" fill="#FB8708"/>
</svg>
