<svg width="16" height="17" viewBox="0 0 16 17" fill="none" xmlns="http://www.w3.org/2000/svg">
<path fill-rule="evenodd" clip-rule="evenodd" d="M7.97263 4.29773C8.84494 4.31706 9.58371 3.59669 9.59182 2.7179H9.5912C9.59931 1.84596 8.8674 1.11249 7.99323 1.11561C7.12966 1.11873 6.41397 1.83099 6.40524 2.69731C6.3965 3.5574 7.1022 4.27839 7.97263 4.29773ZM8.94664 2.72912C8.93728 3.2574 8.5186 3.66031 7.98511 3.65469V3.65532C7.45599 3.6497 7.04854 3.2337 7.05104 2.7023C7.05353 2.17091 7.46535 1.76114 7.99697 1.76052C8.54107 1.75989 8.956 2.18276 8.94664 2.72912Z" fill="#FB8708"/>
<path fill-rule="evenodd" clip-rule="evenodd" d="M3.6501 9.70116C3.61484 9.69846 3.57672 9.69553 3.53437 9.69274L3.53313 9.69212V9.31602C3.53313 9.15744 3.53292 8.99879 3.53271 8.84009C3.53229 8.52256 3.53188 8.20484 3.53313 7.88713C3.53375 7.66447 3.47322 7.48422 3.21178 7.49045C2.95346 7.49669 2.89481 7.68006 2.89855 7.90022C2.89939 7.94178 2.89911 7.98306 2.89883 8.02443V8.02458C2.89869 8.04525 2.89855 8.06595 2.89855 8.08671V11.1316C2.89855 11.2222 2.89844 11.3128 2.89832 11.4034C2.89797 11.6752 2.89762 11.9469 2.90043 12.2187C2.9023 12.4245 3.00837 12.5661 3.21553 12.5686C3.42393 12.5711 3.53001 12.4333 3.53125 12.2243C3.53313 11.9549 3.53313 11.6861 3.53313 11.4166V10.3501C3.64589 10.3501 3.7556 10.3495 3.86304 10.3489C4.16166 10.3472 4.44283 10.3457 4.72365 10.3576C4.80289 10.3607 4.90023 10.4406 4.95077 10.5123C5.38817 11.1354 6.14816 11.1366 6.58244 10.5191C6.64047 10.4368 6.769 10.3589 6.86634 10.357C7.62321 10.3439 8.38008 10.3451 9.13632 10.3564C9.2268 10.3582 9.34847 10.4237 9.40151 10.4986C9.857 11.1397 10.5989 11.146 11.0469 10.5054C11.09 10.4443 11.1586 10.3607 11.2172 10.3589C11.5254 10.349 11.834 10.3501 12.1504 10.3512H12.1504C12.2536 10.3516 12.3576 10.352 12.4627 10.352V10.8029C12.4628 10.9325 12.4616 11.0622 12.4603 11.1918C12.4569 11.539 12.4536 11.8861 12.4776 12.2312C12.4858 12.3516 12.6424 12.5318 12.7597 12.5593C12.9537 12.6042 13.076 12.4495 13.0941 12.243C13.0966 12.211 13.0963 12.1786 13.0961 12.1464C13.0961 12.1373 13.096 12.1281 13.096 12.1189V7.92455C13.096 7.91219 13.0975 7.89837 13.0989 7.88445C13.1024 7.85202 13.091 7.71852 13.091 7.80293C13.0658 7.77504 13.0408 7.61177 13.0156 7.5803C12.9411 7.4872 12.8643 7.52343 12.7715 7.50106C12.5831 7.45553 12.4702 7.60646 12.4658 7.80168C12.4609 8.01902 12.4614 8.23673 12.4618 8.45424V8.45444C12.4619 8.5165 12.462 8.57854 12.462 8.64056V9.68401H11.2016C11.1975 9.66504 11.1937 9.65033 11.1905 9.63827C11.1856 9.61941 11.1823 9.60699 11.1823 9.59482C11.1817 9.2291 11.1817 8.86345 11.1817 8.49783C11.1817 7.80718 11.1818 7.11662 11.1773 6.4258C11.1704 5.36488 10.4441 4.63515 9.37842 4.62393C8.4562 4.61457 7.53336 4.61395 6.61114 4.62393C5.54728 4.63515 4.82535 5.368 4.81974 6.43266C4.81662 7.04069 4.81715 7.64897 4.81769 8.25734V8.2575C4.81801 8.62258 4.81833 8.9877 4.81787 9.35282C4.81787 9.42519 4.8138 9.49755 4.80924 9.57868L4.80923 9.57876C4.80688 9.62067 4.80439 9.66491 4.80227 9.7127C4.7051 9.7127 4.61017 9.7128 4.51685 9.71291H4.51571C4.28704 9.71316 4.06794 9.7134 3.84885 9.71207C3.78691 9.71165 3.72498 9.7069 3.6501 9.70116ZM7.222 9.71191H7.21842C7.05593 9.71168 6.89171 9.71145 6.72532 9.71145V7.62081C6.72512 7.54142 6.72505 7.4621 6.72498 7.38281C6.72484 7.22413 6.7247 7.06554 6.72345 6.90667C6.7222 6.69274 6.63298 6.52871 6.40398 6.52995C6.17686 6.5312 6.08327 6.69399 6.08327 6.90792C6.08202 7.54971 6.08202 8.19149 6.08202 8.83328C6.08202 8.96093 6.08188 9.08858 6.08174 9.21623C6.08146 9.47153 6.08119 9.72683 6.08202 9.98214C6.08264 10.1898 5.9878 10.3345 5.77877 10.3383C5.55352 10.3426 5.44994 10.1929 5.44994 9.97278C5.44994 9.62933 5.44905 9.28583 5.44817 8.94231C5.44589 8.06437 5.44362 7.1863 5.45618 6.30854C5.46492 5.7154 5.94911 5.26447 6.54999 5.25885C7.51339 5.25012 8.47679 5.25012 9.44019 5.25885C10.0679 5.26447 10.5384 5.73224 10.544 6.36467C10.5503 7.11528 10.5494 7.86563 10.5485 8.61606V8.61613C10.548 9.05603 10.5474 9.49598 10.5484 9.93598C10.549 10.1643 10.4691 10.3395 10.2239 10.3383C9.97243 10.337 9.91191 10.1512 9.91253 9.92725C9.91565 8.97548 9.9144 8.02309 9.91253 7.0707C9.91253 7.04678 9.91378 7.02147 9.91505 6.99583C9.91922 6.91119 9.92357 6.82292 9.88383 6.76883C9.80895 6.66592 9.67854 6.54929 9.56686 6.5443C9.47701 6.54056 9.35533 6.67964 9.29543 6.78255C9.26054 6.84241 9.26484 6.92685 9.26903 7.00895C9.27038 7.03549 9.27172 7.06178 9.27172 7.08692C9.27138 7.3034 9.27155 7.51984 9.27173 7.73625V7.73638C9.27219 8.30675 9.27266 8.87687 9.26361 9.447C9.26236 9.53557 9.1619 9.69898 9.1045 9.70022C8.48667 9.71366 7.86805 9.7128 7.222 9.71191Z" fill="#FB8708"/>
<path d="M6.32038 11.5476C6.08702 11.5776 5.88673 11.6038 5.65399 11.6343H5.65336C5.60327 11.8667 5.55252 12.0978 5.50195 12.328C5.38058 12.8807 5.26023 13.4286 5.15232 13.9794C5.05061 14.5015 5.36696 14.9699 5.86426 15.0871C6.35283 15.2025 6.87072 14.9412 6.98802 14.4509C7.18121 13.6414 7.35467 12.8271 7.52904 12.0086L7.52907 12.0085C7.60079 11.6718 7.67267 11.3344 7.74614 10.9963H7.0916C7.0036 11.4094 6.91589 11.8204 6.82845 12.2301C6.69766 12.843 6.56745 13.4532 6.43769 14.0636C6.38964 14.2882 6.32288 14.5158 6.03086 14.4609C5.73947 14.406 5.75632 14.1865 5.80873 13.9501C5.93432 13.3827 6.05384 12.814 6.17506 12.2372L6.17525 12.2363L6.17532 12.236L6.17627 12.2314C6.22389 12.0049 6.27176 11.7771 6.32038 11.5476Z" fill="#FB8708"/>
<path d="M8.24967 10.9907H8.90234C9.00264 11.4572 9.10253 11.9222 9.20225 12.3863C9.2781 12.7393 9.35384 13.0919 9.42959 13.4443C9.44477 13.5146 9.45984 13.5849 9.47491 13.6552C9.5119 13.8277 9.54889 14.0002 9.58745 14.1722C9.63487 14.3848 9.76279 14.5133 9.98679 14.4584C10.2114 14.4029 10.252 14.2327 10.2052 14.0193C10.0761 13.4277 9.95033 12.8354 9.82258 12.2338L9.82244 12.2332C9.77423 12.0061 9.72573 11.7778 9.67668 11.5476C9.81097 11.5647 9.93529 11.5808 10.0629 11.5972L10.0668 11.5977C10.1567 11.6093 10.2483 11.6211 10.3462 11.6337C10.3958 11.8691 10.4477 12.1051 10.4997 12.3418L10.4997 12.3419C10.6256 12.9149 10.7523 13.4919 10.8504 14.0736C10.9358 14.5782 10.5683 15.0104 10.0673 15.1002C9.57809 15.1875 9.10825 14.8969 8.99032 14.3848C8.81012 13.6028 8.64212 12.8184 8.47182 12.0232C8.39858 11.6812 8.32492 11.3373 8.24967 10.9907Z" fill="#FB8708"/>
<path d="M1.64898 7.79809C1.64898 7.62595 1.79132 7.4864 1.96354 7.4864C2.13576 7.4864 2.2781 7.62595 2.2781 7.79809V12.2534C2.2781 12.4255 2.13576 12.5651 1.96354 12.5651C1.79132 12.5651 1.64898 12.4255 1.64898 12.2534V10.3372H1.31163C1.13952 10.3372 1 10.1978 1 10.0257C1 9.8537 1.13952 9.71424 1.31163 9.71424H1.64898V7.79809Z" fill="#FB8708"/>
<path d="M14.0365 7.4864C14.2087 7.4864 14.351 7.62595 14.351 7.79809V9.71424H14.6884C14.8605 9.71424 15 9.8537 15 10.0257C15 10.1978 14.8605 10.3372 14.6884 10.3372H14.351V12.2534C14.351 12.4255 14.2087 12.5651 14.0365 12.5651C13.8642 12.5651 13.7219 12.4255 13.7219 12.2534V7.79809C13.7219 7.62595 13.8642 7.4864 14.0365 7.4864Z" fill="#FB8708"/>
</svg>
