<svg width="16" height="17" viewBox="0 0 16 17" fill="none" xmlns="http://www.w3.org/2000/svg">
<g clip-path="url(#clip0_18_372)">
<path d="M10.0231 0.29248C10.6612 0.481855 11.16 0.83373 11.3825 1.49061C11.6881 2.39311 11.1938 3.38998 10.2931 3.70123C9.40063 4.00998 8.42125 3.54811 8.085 2.66061C7.74563 1.76498 8.19188 0.76498 9.08813 0.414355C9.1925 0.37373 9.29625 0.333105 9.40063 0.29248C9.60813 0.29248 9.81562 0.29248 10.0231 0.29248ZM10.8338 2.04623C10.835 1.43498 10.3488 0.938105 9.73812 0.926855C9.12375 0.915605 8.60375 1.42748 8.60312 2.04373C8.6025 2.65186 9.09563 3.15123 9.70438 3.15748C10.3338 3.16436 10.8331 2.67311 10.8338 2.04623Z" fill="#FB8708"/>
<path d="M5.81063 11.2956C5.68937 11.4825 5.57562 11.6744 5.44562 11.855C5.05625 12.3956 4.52188 12.5356 4.01313 12.2369C3.53688 11.9575 3.37688 11.3956 3.64438 10.8187C4.43313 9.11748 5.23438 7.42248 6.03062 5.72498C6.07375 5.63248 6.11312 5.53873 6.16937 5.41123C6.0575 5.40498 5.97125 5.39623 5.88438 5.39623C4.69125 5.39498 3.49813 5.40248 2.305 5.38935C2.0725 5.38685 1.82188 5.34873 1.61313 5.25373C1.085 5.01248 1.025 4.40748 1.50625 4.08498C1.7375 3.92998 2.03125 3.8281 2.30875 3.78748C3.81625 3.56685 5.32688 3.36873 6.83813 3.17123C7.35563 3.10373 7.84875 3.18998 8.3075 3.45498C9.62562 4.21498 10.9456 4.9706 12.3156 5.75685C12.79 5.39373 13.3369 4.96748 13.8931 4.55373C14.0312 4.4506 14.1925 4.36498 14.3556 4.31123C14.6319 4.22123 14.8956 4.27123 15.0931 4.49998C15.3025 4.7431 15.3538 5.04123 15.1931 5.30998C15.0369 5.57185 14.8363 5.82623 14.6019 6.0181C14.0081 6.5031 13.39 6.95935 12.7694 7.41123C12.4212 7.66435 12.03 7.66123 11.6444 7.49435C11.1531 7.28123 10.6681 7.05435 10.1594 6.82435C9.73625 7.8356 9.32063 8.8281 8.90563 9.8206C8.155 11.6175 7.40563 13.4144 6.655 15.2112C6.61125 15.3162 6.56687 15.4219 6.51438 15.5225C6.22438 16.0806 5.71313 16.295 5.1675 16.0887C4.67313 15.9025 4.41625 15.3881 4.57438 14.8056C4.69063 14.3775 4.86125 13.9631 5.01688 13.5462C5.29375 12.8025 5.57812 12.0612 5.85875 11.3187C5.84312 11.3112 5.82688 11.3031 5.81125 11.2956H5.81063ZM1.84875 4.58748C1.85375 4.6256 1.85875 4.66373 1.86375 4.70185C2.03125 4.72123 2.19813 4.75623 2.36563 4.75685C3.73438 4.76123 5.10375 4.75873 6.4725 4.75998C7.02125 4.75998 7.12063 4.92248 6.88438 5.42373C6.02813 7.24123 5.17188 9.05873 4.31688 10.8762C4.26438 10.9881 4.205 11.1006 4.17563 11.22C4.12813 11.4137 4.15563 11.5912 4.35625 11.7006C4.55875 11.8112 4.71813 11.7419 4.84938 11.5825C4.94125 11.4712 5.02312 11.35 5.09938 11.2269C5.45937 10.6456 5.81125 10.0587 6.17688 9.4806C6.34812 9.20935 6.52375 8.9356 6.73688 8.69935C6.81563 8.61248 7.04125 8.56498 7.14062 8.61623C7.23938 8.66685 7.31812 8.8681 7.3075 8.99498C7.28875 9.21748 7.20937 9.43935 7.13125 9.65248C6.53312 11.2856 5.92875 12.9162 5.32875 14.5487C5.26813 14.7137 5.21125 14.8825 5.18 15.0544C5.14375 15.2525 5.18875 15.4187 5.41437 15.4994C5.63125 15.5775 5.78188 15.5112 5.88688 15.3269C5.96875 15.1837 6.03688 15.0319 6.10063 14.8794C7.27812 12.0612 8.45375 9.24185 9.63062 6.42373C9.78625 6.0506 9.90875 6.00435 10.2731 6.16935C10.7919 6.40435 11.3125 6.6356 11.8281 6.87685C12.0969 7.0031 12.3281 7.02248 12.5588 6.78373C12.7075 6.62935 12.9062 6.5231 13.0787 6.38998C13.4975 6.06748 13.9225 5.75185 14.3269 5.41248C14.4662 5.2956 14.5525 5.11498 14.6631 4.9631C14.6331 4.93748 14.6037 4.91123 14.5737 4.8856C14.4525 4.95873 14.3238 5.02185 14.2113 5.10685C13.6737 5.5131 13.1331 5.91623 12.6094 6.33998C12.3606 6.54123 12.1588 6.56498 11.8938 6.3631C10.6687 5.4306 9.32625 4.68623 7.95188 4.00498C7.64625 3.8531 7.25562 3.82623 6.90375 3.8256C6.4925 3.8256 6.08063 3.9131 5.67 3.96873C4.57125 4.11685 3.4725 4.26435 2.375 4.4231C2.19563 4.44935 2.02375 4.53248 1.84875 4.58873V4.58748Z" fill="#FB8708"/>
<path d="M10.3713 16.23C9.36938 16.2306 8.5875 15.4594 8.59 14.4725C8.5925 13.5069 9.38188 12.7119 10.3475 12.7019C11.3163 12.6925 12.1356 13.5069 12.1344 14.4794C12.1331 15.45 11.3488 16.2294 10.3719 16.23H10.3713ZM9.27 14.4606C9.26375 15.0869 9.73687 15.5662 10.36 15.5656C10.9681 15.565 11.4469 15.0944 11.4537 14.4906C11.4612 13.8781 10.9688 13.3781 10.3588 13.3781C9.75875 13.3781 9.27563 13.8587 9.26938 14.4606H9.27Z" fill="#FB8708"/>
</g>
<defs>
<clipPath id="clip0_18_372">
<rect width="16" height="16" fill="white" transform="translate(0 0.29248)"/>
</clipPath>
</defs>
</svg>
