<svg width="73" height="73" viewBox="0 0 73 73" fill="none" xmlns="http://www.w3.org/2000/svg">
<rect width="73" height="73" rx="9.74359" fill="white"/>
<g clip-path="url(#clip0_22_1368)">
<path d="M42.1091 17.0513C43.7044 17.5247 44.9513 18.4044 45.5075 20.0466C46.2716 22.3028 45.0357 24.795 42.7841 25.5731C40.5528 26.345 38.1044 25.1903 37.2638 22.9716C36.4153 20.7325 37.531 18.2325 39.7716 17.356C40.0325 17.2544 40.2919 17.1528 40.5528 17.0513C41.0716 17.0513 41.5903 17.0513 42.1091 17.0513ZM44.1357 21.4356C44.1388 19.9075 42.9232 18.6653 41.3966 18.6372C39.8607 18.6091 38.5607 19.8888 38.5591 21.4294C38.5575 22.9497 39.7903 24.1981 41.3122 24.2138C42.8857 24.231 44.1341 23.0028 44.1357 21.4356Z" fill="#2D2D2D"/>
<path d="M31.5778 44.559C31.2747 45.0262 30.9903 45.5059 30.6653 45.9575C29.6919 47.309 28.356 47.659 27.0841 46.9122C25.8935 46.2137 25.4935 44.809 26.1622 43.3668C28.1341 39.1137 30.1372 34.8762 32.1278 30.6325C32.2357 30.4012 32.3341 30.1668 32.4747 29.8481C32.195 29.8325 31.9794 29.8106 31.7622 29.8106C28.7794 29.8075 25.7966 29.8262 22.8138 29.7934C22.2325 29.7872 21.606 29.6918 21.0841 29.4543C19.7638 28.8512 19.6138 27.3387 20.8169 26.5325C21.395 26.145 22.1294 25.8903 22.8232 25.7887C26.5919 25.2372 30.3685 24.7418 34.1466 24.2481C35.4403 24.0793 36.6732 24.295 37.82 24.9575C41.1153 26.8575 44.4153 28.7465 47.8403 30.7122C49.0263 29.8043 50.3935 28.7387 51.7841 27.7043C52.1294 27.4465 52.5325 27.2325 52.9403 27.0981C53.631 26.8731 54.2903 26.9981 54.7841 27.57C55.3075 28.1778 55.4356 28.9231 55.0341 29.595C54.6435 30.2497 54.1419 30.8856 53.556 31.3653C52.0716 32.5778 50.5263 33.7184 48.9747 34.8481C48.1044 35.4809 47.1263 35.4731 46.1622 35.0559C44.9341 34.5231 43.7216 33.9559 42.4497 33.3809C41.3919 35.909 40.3528 38.3903 39.3153 40.8715C37.4388 45.3637 35.5653 49.8559 33.6888 54.3481C33.5794 54.6106 33.4685 54.8747 33.3372 55.1262C32.6122 56.5215 31.3341 57.0575 29.97 56.5418C28.7341 56.0762 28.0919 54.7903 28.4872 53.334C28.7778 52.2637 29.2044 51.2278 29.5935 50.1856C30.2857 48.3262 30.9966 46.4731 31.6982 44.6168C31.6591 44.5981 31.6185 44.5778 31.5794 44.559H31.5778ZM21.6732 27.7887C21.6857 27.884 21.6982 27.9793 21.7107 28.0747C22.1294 28.1231 22.5466 28.2106 22.9653 28.2122C26.3872 28.2231 29.8107 28.2168 33.2325 28.22C34.6044 28.22 34.8528 28.6262 34.2622 29.8793C32.1216 34.4231 29.981 38.9668 27.8435 43.5106C27.7122 43.7903 27.5638 44.0715 27.4903 44.37C27.3716 44.8543 27.4403 45.2981 27.9419 45.5715C28.4482 45.8481 28.8466 45.6747 29.1747 45.2762C29.4044 44.9981 29.6091 44.695 29.7997 44.3872C30.6997 42.934 31.5794 41.4668 32.4935 40.0215C32.9216 39.3434 33.3607 38.659 33.8935 38.0684C34.0903 37.8512 34.6544 37.7325 34.9028 37.8606C35.1497 37.9872 35.3466 38.4903 35.32 38.8075C35.2732 39.3637 35.0747 39.9184 34.8794 40.4512C33.3841 44.534 31.8732 48.6106 30.3732 52.6918C30.2216 53.1043 30.0794 53.5262 30.0013 53.9559C29.9107 54.4512 30.0232 54.8668 30.5872 55.0684C31.1294 55.2637 31.506 55.0981 31.7685 54.6372C31.9732 54.2793 32.1435 53.8997 32.3028 53.5184C35.2466 46.4731 38.1857 39.4247 41.1278 32.3793C41.5169 31.4465 41.8232 31.3309 42.7341 31.7434C44.031 32.3309 45.3325 32.909 46.6216 33.5122C47.2935 33.8278 47.8716 33.8762 48.4482 33.2793C48.82 32.8934 49.3169 32.6278 49.7482 32.295C50.795 31.4887 51.8575 30.6997 52.8685 29.8512C53.2169 29.559 53.4325 29.1075 53.7091 28.7278C53.6341 28.6637 53.5606 28.5981 53.4856 28.534C53.1825 28.7168 52.8607 28.8747 52.5794 29.0872C51.2357 30.1028 49.8841 31.1106 48.5747 32.17C47.9528 32.6731 47.4482 32.7325 46.7857 32.2278C43.7232 29.8965 40.3669 28.0356 36.931 26.3325C36.1669 25.9528 35.1903 25.8856 34.3107 25.884C33.2825 25.884 32.2528 26.1028 31.2263 26.2418C28.4794 26.6122 25.7325 26.9809 22.9888 27.3778C22.5403 27.4434 22.1107 27.6512 21.6732 27.7918V27.7887Z" fill="#2D2D2D"/>
<path d="M42.9794 56.895C40.4747 56.8966 38.52 54.9685 38.5263 52.5013C38.5325 50.0872 40.5059 48.0997 42.92 48.0747C45.3419 48.0513 47.3903 50.0872 47.3872 52.5185C47.3841 54.945 45.4231 56.8935 42.9809 56.895H42.9794ZM40.2263 52.4716C40.2106 54.0372 41.3934 55.2357 42.9513 55.2341C44.4716 55.2325 45.6684 54.056 45.6856 52.5466C45.7044 51.0153 44.4731 49.7653 42.9481 49.7653C41.4481 49.7653 40.2403 50.9669 40.2247 52.4716H40.2263Z" fill="#2D2D2D"/>
</g>
<defs>
<clipPath id="clip0_22_1368">
<rect width="40" height="40" fill="white" transform="translate(17.0513 17.0513)"/>
</clipPath>
</defs>
</svg>
