<svg width="73" height="73" viewBox="0 0 73 73" fill="none" xmlns="http://www.w3.org/2000/svg">
<rect width="73" height="73" rx="9.74359" fill="white"/>
<path fill-rule="evenodd" clip-rule="evenodd" d="M36.9335 27.728C39.052 27.775 40.8461 26.0255 40.8658 23.8913H40.8643C40.884 21.7737 39.1065 19.9925 36.9835 20C34.8863 20.0076 33.1482 21.7374 33.127 23.8413C33.1058 25.9301 34.8196 27.6811 36.9335 27.728ZM39.299 23.9186C39.2763 25.2015 38.2595 26.18 36.9638 26.1664V26.1679C35.6788 26.1543 34.6893 25.1439 34.6954 23.8534C34.7014 22.5629 35.7016 21.5677 36.9926 21.5662C38.314 21.5647 39.3217 22.5917 39.299 23.9186Z" fill="#2D2D2D"/>
<path fill-rule="evenodd" clip-rule="evenodd" d="M26.4359 40.8506C26.3503 40.8441 26.2577 40.837 26.1549 40.8302L26.1519 40.8287V39.9153C26.1519 39.5302 26.1514 39.1449 26.1509 38.7595C26.1499 37.9883 26.1488 37.2167 26.1519 36.4451C26.1534 35.9044 26.0064 35.4666 25.3715 35.4818C24.7441 35.4969 24.6017 35.9423 24.6108 36.4769C24.6128 36.5779 24.6121 36.6781 24.6114 36.7786V36.7789C24.6111 36.8291 24.6108 36.8794 24.6108 36.9298V44.3246C24.6108 44.5446 24.6105 44.7646 24.6102 44.9846C24.6094 45.6447 24.6085 46.3047 24.6153 46.9647C24.6199 47.4646 24.8775 47.8084 25.3806 47.8145C25.8867 47.8205 26.1443 47.4858 26.1473 46.9784C26.1519 46.324 26.1519 45.6712 26.1519 45.0168V42.4267C26.4257 42.4267 26.6922 42.4252 26.9531 42.4238C27.6783 42.4197 28.3611 42.4159 29.0431 42.4449C29.2356 42.4524 29.472 42.6463 29.5947 42.8205C30.657 44.3337 32.5027 44.3367 33.5573 42.8372C33.6983 42.6372 34.0104 42.4479 34.2468 42.4434C36.0849 42.4115 37.923 42.4146 39.7596 42.4418C39.9794 42.4464 40.2749 42.6054 40.4037 42.7872C41.5099 44.3443 43.3116 44.3594 44.3996 42.8038C44.5042 42.6554 44.6709 42.4524 44.8133 42.4479C45.5618 42.4239 46.3111 42.4266 47.0795 42.4294H47.0796C47.3302 42.4303 47.5827 42.4312 47.8379 42.4312V43.5264C47.8383 43.8411 47.8353 44.156 47.8322 44.4709C47.824 45.3139 47.8158 46.1569 47.8743 46.995C47.894 47.2874 48.2743 47.7251 48.5592 47.7918C49.0305 47.9008 49.3275 47.5252 49.3714 47.0238C49.3773 46.946 49.3768 46.8674 49.3763 46.7892C49.3761 46.7669 49.376 46.7446 49.376 46.7224V36.536C49.376 36.506 49.3795 36.4724 49.3831 36.4386C49.3915 36.3599 49.3639 36.0357 49.3639 36.2407C49.3026 36.1729 49.242 35.7764 49.1809 35.7C48.9998 35.4739 48.8134 35.5619 48.588 35.5075C48.1304 35.397 47.8561 35.7635 47.8455 36.2376C47.8337 36.7654 47.8348 37.2942 47.8358 37.8224V37.8229C47.8361 37.9736 47.8364 38.1243 47.8364 38.2749V40.809H44.7754C44.7654 40.7629 44.756 40.7272 44.7483 40.6979C44.7363 40.6521 44.7284 40.622 44.7284 40.5924C44.7269 39.7042 44.7269 38.8162 44.727 37.9283C44.7271 36.251 44.7272 34.5739 44.7163 32.8962C44.6996 30.3197 42.9358 28.5475 40.3476 28.5202C38.1079 28.4975 35.8667 28.496 33.6271 28.5202C31.0434 28.5475 29.2901 30.3273 29.2765 32.9129C29.2689 34.3895 29.2702 35.8667 29.2715 37.3442V37.3446C29.2723 38.2312 29.2731 39.118 29.272 40.0047C29.272 40.1804 29.2621 40.3562 29.251 40.5532L29.251 40.5534C29.2453 40.6552 29.2392 40.7626 29.2341 40.8787C28.9981 40.8787 28.7676 40.8789 28.5409 40.8792H28.5381C27.9828 40.8798 27.4507 40.8804 26.9186 40.8771C26.7682 40.8761 26.6178 40.8646 26.4359 40.8506ZM35.1106 40.8767H35.1019C34.7073 40.8762 34.3084 40.8756 33.9044 40.8756V35.7984C33.9039 35.6056 33.9037 35.4129 33.9035 35.2204C33.9032 34.835 33.9028 34.4498 33.8998 34.064C33.8968 33.5445 33.6801 33.1461 33.124 33.1491C32.5724 33.1522 32.3451 33.5475 32.3451 34.0671C32.342 35.6257 32.342 37.1843 32.342 38.7429C32.342 39.0529 32.3417 39.363 32.3414 39.673C32.3407 40.293 32.34 40.913 32.342 41.533C32.3436 42.0374 32.1132 42.3888 31.6056 42.3979C31.0585 42.4085 30.807 42.045 30.807 41.5103C30.807 40.6762 30.8048 39.842 30.8027 39.0077C30.7972 36.8756 30.7917 34.7431 30.8222 32.6114C30.8434 31.1709 32.0193 30.0758 33.4785 30.0622C35.8182 30.041 38.1579 30.041 40.4976 30.0622C42.022 30.0758 43.1646 31.2118 43.1782 32.7478C43.1935 34.5706 43.1914 36.3929 43.1892 38.2154V38.2156C43.1879 39.2839 43.1866 40.3523 43.1889 41.4209C43.1904 41.9753 42.9964 42.4009 42.4009 42.3979C41.7902 42.3949 41.6432 41.9435 41.6447 41.3997C41.6523 39.0883 41.6493 36.7753 41.6447 34.4624C41.6447 34.4043 41.6478 34.3428 41.6508 34.2805C41.661 34.075 41.6715 33.8606 41.575 33.7293C41.3932 33.4794 41.0765 33.1961 40.8052 33.184C40.587 33.1749 40.2915 33.5127 40.146 33.7626C40.0613 33.908 40.0718 34.113 40.0819 34.3124C40.0852 34.3769 40.0885 34.4407 40.0885 34.5018C40.0876 35.0275 40.0881 35.5532 40.0885 36.0787V36.079C40.0896 37.4642 40.0907 38.8488 40.0688 40.2334C40.0657 40.4485 39.8218 40.8453 39.6824 40.8484C38.1819 40.881 36.6795 40.8789 35.1106 40.8767Z" fill="#2D2D2D"/>
<path d="M32.9209 45.3349C32.3542 45.4076 31.8678 45.4712 31.3025 45.5455H31.301C31.1794 46.1099 31.0561 46.671 30.9333 47.2302C30.6386 48.5723 30.3463 49.9031 30.0842 51.2407C29.8372 52.5085 30.6055 53.6461 31.8132 53.9308C32.9997 54.2111 34.2575 53.5764 34.5423 52.3858C35.0115 50.4198 35.4328 48.4423 35.8562 46.4544L35.8563 46.4541C36.0305 45.6365 36.2051 44.817 36.3835 43.9959H34.7939C34.5802 44.9991 34.3672 45.9973 34.1548 46.9924C33.8372 48.4809 33.5209 49.9628 33.2058 51.4452C33.0891 51.9905 32.927 52.5434 32.2178 52.4101C31.5101 52.2768 31.5511 51.7436 31.6783 51.1695C31.9834 49.7916 32.2736 48.4105 32.568 47.0096L32.5685 47.0074L32.5686 47.0066L32.571 46.9956C32.6866 46.4454 32.8029 45.8922 32.9209 45.3349Z" fill="#2D2D2D"/>
<path d="M37.6063 43.9823H39.1914C39.435 45.1153 39.6776 46.2445 39.9197 47.3717C40.1039 48.229 40.2879 49.0852 40.4719 49.9411C40.5087 50.1117 40.5453 50.2825 40.5819 50.4533C40.6717 50.8722 40.7616 51.2913 40.8552 51.7088C40.9704 52.2253 41.2811 52.5373 41.8251 52.404C42.3706 52.2692 42.4691 51.8557 42.3554 51.3377C42.042 49.9008 41.7365 48.4623 41.4263 47.0014L41.4259 46.9998C41.3088 46.4484 41.1911 45.8938 41.0719 45.3349C41.3981 45.3764 41.7 45.4154 42.0099 45.4554L42.0193 45.4566C42.2377 45.4848 42.4601 45.5135 42.6979 45.5439C42.8184 46.1156 42.9443 46.6888 43.0706 47.2636L43.0707 47.2639C43.3764 48.6554 43.6842 50.0567 43.9223 51.4695C44.1299 52.6948 43.2374 53.7445 42.0205 53.9627C40.8325 54.1747 39.6915 53.4689 39.4051 52.2253C38.9674 50.3261 38.5594 48.4211 38.1458 46.4899C37.968 45.6594 37.7891 44.8241 37.6063 43.9823Z" fill="#2D2D2D"/>
<path d="M21.5761 36.2289C21.5761 35.8108 21.9218 35.4719 22.34 35.4719C22.7583 35.4719 23.104 35.8108 23.104 36.2289V47.0489C23.104 47.467 22.7583 47.8059 22.34 47.8059C21.9218 47.8059 21.5761 47.467 21.5761 47.0489V42.3954H20.7568C20.3388 42.3954 20 42.0567 20 41.6389C20 41.2211 20.3388 40.8824 20.7568 40.8824H21.5761V36.2289Z" fill="#2D2D2D"/>
<path d="M51.66 35.4719C52.0782 35.4719 52.4239 35.8108 52.4239 36.2289V40.8824H53.2432C53.6612 40.8824 54 41.2211 54 41.6389C54 42.0567 53.6612 42.3954 53.2432 42.3954H52.4239V47.0489C52.4239 47.467 52.0782 47.8059 51.66 47.8059C51.2417 47.8059 50.896 47.467 50.896 47.0489V36.2289C50.896 35.8108 51.2417 35.4719 51.66 35.4719Z" fill="#2D2D2D"/>
</svg>
