<svg width="18" height="10" viewBox="0 0 18 10" fill="none" xmlns="http://www.w3.org/2000/svg">
<path fill-rule="evenodd" clip-rule="evenodd" d="M15.9231 8.38346C15.9231 9.13092 15.3032 9.73685 14.5385 9.73685L14.0769 9.73685C13.3122 9.73685 12.6923 9.13092 12.6923 8.38346L12.6923 5.6767L5.30769 5.6767L5.30769 8.38346C5.30769 9.13092 4.68778 9.73685 3.92308 9.73685L3.46154 9.73685C2.69683 9.73685 2.07692 9.13092 2.07692 8.38346L2.07692 8.13917C2.00188 8.15148 1.92478 8.1579 1.84615 8.1579L1.38462 8.1579C0.619911 8.1579 1.91008e-07 7.55197 2.56352e-07 6.80451L5.71863e-07 3.19549C6.37208e-07 2.44804 0.619912 1.84211 1.38462 1.84211L1.84615 1.84211C1.92478 1.84211 2.00188 1.84853 2.07692 1.86083L2.07692 1.61655C2.07692 0.86909 2.69683 0.263162 3.46154 0.263162L3.92308 0.263162C4.68778 0.263162 5.30769 0.86909 5.30769 1.61655L5.30769 4.32331L12.6923 4.32331L12.6923 1.61655C12.6923 0.869091 13.3122 0.263163 14.0769 0.263163L14.5385 0.263163C15.3032 0.263163 15.9231 0.869091 15.9231 1.61655L15.9231 1.86083C15.9981 1.84853 16.0752 1.84211 16.1538 1.84211L16.6154 1.84211C17.3801 1.84211 18 2.44804 18 3.19549L18 6.80452C18 7.55197 17.3801 8.1579 16.6154 8.1579L16.1538 8.1579C16.0752 8.1579 15.9981 8.15148 15.9231 8.13918L15.9231 8.38346ZM14.3077 8.60903C14.5626 8.60903 14.7692 8.40706 14.7692 8.1579L14.7692 1.84211C14.7692 1.59295 14.5626 1.39098 14.3077 1.39098C14.0528 1.39098 13.8462 1.59295 13.8462 1.84211L13.8462 8.1579C13.8462 8.40706 14.0528 8.60903 14.3077 8.60903ZM15.9231 6.57895C15.9231 6.82811 16.1297 7.03008 16.3846 7.03008C16.6395 7.03008 16.8462 6.82811 16.8462 6.57895L16.8462 3.42106C16.8462 3.1719 16.6395 2.96993 16.3846 2.96993C16.1297 2.96993 15.9231 3.1719 15.9231 3.42106L15.9231 6.57895ZM3.69231 8.60903C3.4374 8.60903 3.23077 8.40706 3.23077 8.1579L3.23077 1.84211C3.23077 1.59295 3.4374 1.39098 3.69231 1.39098C3.94721 1.39098 4.15385 1.59295 4.15385 1.84211L4.15385 8.1579C4.15385 8.40706 3.94721 8.60903 3.69231 8.60903ZM2.07692 6.57895C2.07692 6.82811 1.87029 7.03008 1.61539 7.03008C1.36048 7.03008 1.15385 6.82811 1.15385 6.57895L1.15385 3.42106C1.15385 3.1719 1.36048 2.96993 1.61539 2.96993C1.87029 2.96993 2.07692 3.1719 2.07692 3.42106L2.07692 6.57895Z" fill="#FB8708"/>
</svg>
