<svg width="211" height="145" viewBox="0 0 211 145" fill="none" xmlns="http://www.w3.org/2000/svg">
<path d="M103.26 59.135C103.51 59.2575 103.576 59.2999 103.646 59.3187C109.515 61.1981 113.298 59.1397 115.756 53.5109C117.155 50.3126 119.398 47.4771 121.286 44.5001C122.676 42.3051 124.635 40.9674 127.292 40.958C134.984 40.9345 142.676 40.8732 150.363 41.0051C154.616 41.0805 157.834 44.0574 158.535 48.1176C159.176 51.8058 156.92 55.7766 153.236 57.1143C151.941 57.5853 150.485 57.7455 149.096 57.7785C145.408 57.868 141.72 57.8538 138.031 57.7926C136.307 57.7643 135.299 58.452 134.626 60.0535C132.681 64.6743 130.665 69.2669 128.592 73.8358C125.455 80.7506 119.996 84.4905 112.445 84.2456C103.434 83.9536 94.4189 83.3177 85.4599 82.3426C78.6912 81.6031 72.1816 82.9503 65.5777 83.6521C64.0186 83.817 62.4736 84.1184 60.9145 84.2644C55.6767 84.7496 51.7012 80.6705 52.5067 75.4939C52.7657 73.8217 53.3074 72.1166 54.0846 70.614C56.4869 65.9461 59.1152 61.3913 61.5222 56.7281C62.0497 55.7106 62.3041 54.3776 62.1957 53.2377C61.6022 46.8317 65.1161 41.071 70.9145 39.1869C77.3676 37.0909 83.8866 39.5779 87.1509 45.2632C87.5936 46.0357 88.5074 46.6904 89.3506 47.0437C90.8626 47.6702 92.4829 48.0282 94.0609 48.4992C100.528 50.4163 102.337 52.4982 103.255 59.1397L103.26 59.135ZM64.8052 60.6941C62.4548 65.1548 60.0102 69.7709 57.6079 74.4105C57.3677 74.8768 57.3488 75.475 57.297 76.0167C57.0851 78.3624 58.2532 79.5824 60.6037 79.4034C61.932 79.3045 63.2414 79.0219 64.5697 78.9041C70.5659 78.3577 76.5763 77.2979 82.5583 77.4392C91.5597 77.6512 100.547 78.6498 109.529 79.4317C117.273 80.1052 121.71 77.5947 124.796 70.5434C126.524 66.5961 128.38 62.7007 129.939 58.6923C131.56 54.5378 134.456 52.7479 138.832 52.875C142.596 52.9881 146.373 53.054 150.118 52.7903C151.286 52.7055 152.779 51.7116 153.363 50.6989C153.834 49.8793 153.58 47.9716 152.902 47.3169C151.96 46.4078 150.33 45.8143 148.978 45.7861C142.238 45.64 135.488 45.7766 128.743 45.6824C126.84 45.6542 125.723 46.3843 124.767 47.9575C121.804 52.8515 118.658 57.6324 115.733 62.55C114.569 64.5095 113.189 65.1595 110.924 64.9287C102.346 64.0479 93.75 63.3319 85.1631 62.583C84.4848 62.5217 83.7359 62.5359 83.1094 62.7667C79.0821 64.2363 75.0972 65.7954 74.028 70.6752C74.0139 70.7506 73.9668 70.8213 73.9291 70.8872C73.1048 72.2391 71.8942 72.6912 70.5282 71.9329C69.2565 71.2263 68.9974 70.0346 69.6616 68.6922C70.3116 67.3827 70.9475 66.0639 71.5127 64.9051C69.2612 63.492 67.1698 62.1779 64.8005 60.6941H64.8052ZM75.5918 43.3414C70.5282 43.2896 67.0992 46.5774 66.9814 51.5844C66.8683 56.5208 70.3069 60.0959 75.2668 60.1996C80.2409 60.3032 83.7736 56.8835 83.8442 51.9094C83.9149 46.8412 80.5941 43.3932 75.5918 43.3461V43.3414ZM87.5512 57.8915C91.164 58.2118 94.6261 58.5227 98.0882 58.8336C98.4462 54.7639 95.4504 53.2472 88.8089 52.3569C88.4085 54.1044 88.0128 55.8472 87.5465 57.8915H87.5512Z" fill="#9B9B9B"/>
<path d="M153.929 84.3963C152.761 83.7746 150.5 83.0822 148.922 81.6408C144.758 77.8396 140.895 73.704 136.901 69.7144C135.653 68.4708 134.932 67.0813 136.449 65.6635C137.862 64.3399 139.171 65.1077 140.33 66.2758C144.254 70.2278 148.102 74.2598 152.181 78.0422C153.086 78.8806 154.899 79.2715 156.147 79.0407C157.052 78.8759 158.215 77.4063 158.333 76.4124C158.465 75.2961 157.824 73.8029 157.023 72.9268C154.489 70.1524 151.724 67.5853 149.035 64.9523C147.777 63.7229 147.042 62.3286 148.512 60.8967C149.883 59.5637 151.22 60.2796 152.398 61.4525C155.229 64.2787 158.154 67.0107 160.909 69.9075C163.467 72.5971 164.108 75.7859 162.596 79.2386C161.164 82.5216 158.46 84.0007 153.933 84.3916L153.929 84.3963Z" fill="#9B9B9B"/>
<path d="M119.996 6.55883C119.996 8.55129 119.953 10.4024 120.01 12.2536C120.066 14.1565 119.157 15.3765 117.466 16.0501C115.036 17.0157 112.511 17.1381 110.203 15.9041C109.237 15.3859 108.098 14.1189 108.088 13.1815C108.079 12.2583 109.214 10.963 110.175 10.4684C111.574 9.7477 113.265 9.60168 115.111 9.14007C115.111 7.43495 115.097 5.57438 115.111 3.71853C115.149 -0.0355768 116.538 -0.855169 119.977 0.845247C120.957 1.33041 121.932 1.82499 122.911 2.31015C124.226 2.96017 125.182 3.89281 124.598 5.45191C124.004 7.03928 122.761 7.46321 121.169 6.82732C120.895 6.71898 120.585 6.69543 119.991 6.56825L119.996 6.55883Z" fill="#9B9B9B"/>
<path d="M106.341 21.7448C104.847 24.1423 103.887 26.2949 102.37 27.9294C100.971 29.4367 98.9973 30.4259 97.2262 31.561C95.2856 32.8093 93.5475 34.0622 93.1706 36.6717C93.067 37.3688 91.263 38.5134 90.6836 38.2873C89.7886 37.9435 88.7288 36.6152 88.7053 35.6826C88.644 32.7433 90.3256 30.5248 92.6337 28.8526C94.3388 27.6185 96.3265 26.733 97.8856 25.3482C99.082 24.2884 100.043 22.7905 100.66 21.302C101.225 19.9408 101.941 18.9422 103.317 19.3284C104.292 19.6016 105.041 20.6614 106.336 21.7448H106.341Z" fill="#9B9B9B"/>
<path d="M5.80143 117.556C5.3881 117.556 5.0681 117.443 4.84143 117.216C4.6281 116.976 4.52143 116.643 4.52143 116.216V110.136L5.06143 111.676L0.241429 104.896C0.0680952 104.656 -0.0119048 104.403 0.00142857 104.136C0.0280952 103.856 0.141429 103.623 0.341429 103.436C0.541429 103.236 0.821429 103.136 1.18143 103.136C1.4481 103.136 1.6881 103.203 1.90143 103.336C2.1281 103.47 2.34143 103.676 2.54143 103.956L6.12143 109.036H5.56143L9.16143 103.956C9.37476 103.663 9.58143 103.456 9.78143 103.336C9.98143 103.203 10.2281 103.136 10.5214 103.136C10.8681 103.136 11.1348 103.23 11.3214 103.416C11.5214 103.59 11.6214 103.81 11.6214 104.076C11.6348 104.343 11.5414 104.623 11.3414 104.916L6.56143 111.676L7.08143 110.136V116.216C7.08143 117.11 6.65476 117.556 5.80143 117.556Z" fill="#9B9B9B"/>
<path d="M16.0846 117.596C15.0712 117.596 14.1912 117.39 13.4446 116.976C12.6979 116.563 12.1179 115.976 11.7046 115.216C11.2912 114.443 11.0846 113.536 11.0846 112.496C11.0846 111.71 11.1979 111.01 11.4246 110.396C11.6646 109.77 12.0046 109.236 12.4446 108.796C12.8846 108.343 13.4112 108.003 14.0246 107.776C14.6379 107.536 15.3246 107.416 16.0846 107.416C17.0979 107.416 17.9779 107.623 18.7246 108.036C19.4712 108.45 20.0512 109.036 20.4646 109.796C20.8779 110.556 21.0846 111.456 21.0846 112.496C21.0846 113.283 20.9646 113.99 20.7246 114.616C20.4979 115.243 20.1646 115.783 19.7246 116.236C19.2846 116.676 18.7579 117.016 18.1446 117.256C17.5312 117.483 16.8446 117.596 16.0846 117.596ZM16.0846 115.696C16.5779 115.696 17.0112 115.576 17.3846 115.336C17.7579 115.096 18.0446 114.743 18.2446 114.276C18.4579 113.796 18.5646 113.203 18.5646 112.496C18.5646 111.43 18.3379 110.636 17.8846 110.116C17.4312 109.583 16.8312 109.316 16.0846 109.316C15.5912 109.316 15.1579 109.436 14.7846 109.676C14.4112 109.903 14.1179 110.256 13.9046 110.736C13.7046 111.203 13.6046 111.79 13.6046 112.496C13.6046 113.55 13.8312 114.35 14.2846 114.896C14.7379 115.43 15.3379 115.696 16.0846 115.696Z" fill="#9B9B9B"/>
<path d="M26.688 117.596C25.8747 117.596 25.2013 117.45 24.668 117.156C24.1347 116.85 23.7347 116.396 23.468 115.796C23.2147 115.196 23.088 114.45 23.088 113.556V108.716C23.088 108.29 23.1947 107.976 23.408 107.776C23.6213 107.563 23.928 107.456 24.328 107.456C24.728 107.456 25.0347 107.563 25.248 107.776C25.4747 107.976 25.588 108.29 25.588 108.716V113.596C25.588 114.29 25.728 114.803 26.008 115.136C26.288 115.47 26.7347 115.636 27.348 115.636C28.0147 115.636 28.5613 115.41 28.988 114.956C29.4147 114.49 29.628 113.876 29.628 113.116V108.716C29.628 108.29 29.7347 107.976 29.948 107.776C30.1613 107.563 30.468 107.456 30.868 107.456C31.268 107.456 31.5747 107.563 31.788 107.776C32.0147 107.976 32.128 108.29 32.128 108.716V116.276C32.128 117.13 31.7213 117.556 30.908 117.556C30.5213 117.556 30.2213 117.45 30.008 117.236C29.7947 117.01 29.688 116.69 29.688 116.276V114.756L29.968 115.356C29.688 116.076 29.2613 116.63 28.688 117.016C28.128 117.403 27.4613 117.596 26.688 117.596Z" fill="#9B9B9B"/>
<path d="M41.3997 117.556C40.9997 117.556 40.693 117.45 40.4797 117.236C40.2664 117.01 40.1597 116.69 40.1597 116.276V104.396C40.1597 103.983 40.2664 103.67 40.4797 103.456C40.693 103.243 40.9997 103.136 41.3997 103.136C41.7997 103.136 42.1064 103.243 42.3197 103.456C42.5464 103.67 42.6597 103.983 42.6597 104.396V109.576H42.3797C42.673 108.87 43.1264 108.336 43.7397 107.976C44.3664 107.603 45.073 107.416 45.8597 107.416C46.6464 107.416 47.293 107.563 47.7997 107.856C48.3064 108.15 48.6864 108.596 48.9397 109.196C49.193 109.783 49.3197 110.53 49.3197 111.436V116.276C49.3197 116.69 49.213 117.01 48.9997 117.236C48.7864 117.45 48.4797 117.556 48.0797 117.556C47.6797 117.556 47.3664 117.45 47.1397 117.236C46.9264 117.01 46.8197 116.69 46.8197 116.276V111.556C46.8197 110.796 46.673 110.243 46.3797 109.896C46.0997 109.55 45.6597 109.376 45.0597 109.376C44.3264 109.376 43.7397 109.61 43.2997 110.076C42.873 110.53 42.6597 111.136 42.6597 111.896V116.276C42.6597 117.13 42.2397 117.556 41.3997 117.556Z" fill="#9B9B9B"/>
<path d="M55.0789 117.596C54.3723 117.596 53.7389 117.463 53.1789 117.196C52.6323 116.916 52.1989 116.543 51.8789 116.076C51.5723 115.61 51.4189 115.083 51.4189 114.496C51.4189 113.776 51.6056 113.21 51.9789 112.796C52.3523 112.37 52.9589 112.063 53.7989 111.876C54.6389 111.69 55.7656 111.596 57.1789 111.596H58.1789V113.036H57.1989C56.3723 113.036 55.7123 113.076 55.2189 113.156C54.7256 113.236 54.3723 113.376 54.1589 113.576C53.9589 113.763 53.8589 114.03 53.8589 114.376C53.8589 114.816 54.0123 115.176 54.3189 115.456C54.6256 115.736 55.0523 115.876 55.5989 115.876C56.0389 115.876 56.4256 115.776 56.7589 115.576C57.1056 115.363 57.3789 115.076 57.5789 114.716C57.7789 114.356 57.8789 113.943 57.8789 113.476V111.176C57.8789 110.51 57.7323 110.03 57.4389 109.736C57.1456 109.443 56.6523 109.296 55.9589 109.296C55.5723 109.296 55.1523 109.343 54.6989 109.436C54.2589 109.53 53.7923 109.69 53.2989 109.916C53.0456 110.036 52.8189 110.07 52.6189 110.016C52.4323 109.963 52.2856 109.856 52.1789 109.696C52.0723 109.523 52.0189 109.336 52.0189 109.136C52.0189 108.936 52.0723 108.743 52.1789 108.556C52.2856 108.356 52.4656 108.21 52.7189 108.116C53.3323 107.863 53.9189 107.683 54.4789 107.576C55.0523 107.47 55.5723 107.416 56.0389 107.416C56.9989 107.416 57.7856 107.563 58.3989 107.856C59.0256 108.15 59.4923 108.596 59.7989 109.196C60.1056 109.783 60.2589 110.543 60.2589 111.476V116.276C60.2589 116.69 60.1589 117.01 59.9589 117.236C59.7589 117.45 59.4723 117.556 59.0989 117.556C58.7256 117.556 58.4323 117.45 58.2189 117.236C58.0189 117.01 57.9189 116.69 57.9189 116.276V115.316H58.0789C57.9856 115.783 57.7989 116.19 57.5189 116.536C57.2523 116.87 56.9123 117.13 56.4989 117.316C56.0856 117.503 55.6123 117.596 55.0789 117.596Z" fill="#9B9B9B"/>
<path d="M66.6588 117.556C66.3254 117.556 66.0321 117.47 65.7788 117.296C65.5388 117.123 65.3388 116.856 65.1788 116.496L61.9988 109.116C61.8788 108.823 61.8321 108.55 61.8588 108.296C61.8988 108.043 62.0188 107.843 62.2188 107.696C62.4321 107.536 62.7188 107.456 63.0788 107.456C63.3854 107.456 63.6321 107.53 63.8188 107.676C64.0054 107.81 64.1721 108.07 64.3188 108.456L67.0188 115.196H66.4188L69.1988 108.436C69.3454 108.063 69.5121 107.81 69.6988 107.676C69.8988 107.53 70.1654 107.456 70.4988 107.456C70.7921 107.456 71.0254 107.536 71.1988 107.696C71.3721 107.843 71.4788 108.043 71.5188 108.296C71.5588 108.536 71.5121 108.803 71.3788 109.096L68.1388 116.496C67.9921 116.856 67.7921 117.123 67.5388 117.296C67.2988 117.47 67.0054 117.556 66.6588 117.556Z" fill="#9B9B9B"/>
<path d="M77.8703 117.596C76.7637 117.596 75.8103 117.39 75.0103 116.976C74.2103 116.563 73.5903 115.976 73.1503 115.216C72.7237 114.456 72.5103 113.556 72.5103 112.516C72.5103 111.503 72.717 110.616 73.1303 109.856C73.557 109.096 74.137 108.503 74.8703 108.076C75.617 107.636 76.4637 107.416 77.4103 107.416C78.1037 107.416 78.7237 107.53 79.2703 107.756C79.8303 107.983 80.3037 108.31 80.6903 108.736C81.0903 109.163 81.3903 109.683 81.5903 110.296C81.8037 110.896 81.9103 111.576 81.9103 112.336C81.9103 112.576 81.8237 112.763 81.6503 112.896C81.4903 113.016 81.257 113.076 80.9503 113.076H74.5303V111.636H80.1503L79.8303 111.936C79.8303 111.323 79.737 110.81 79.5503 110.396C79.377 109.983 79.117 109.67 78.7703 109.456C78.437 109.23 78.017 109.116 77.5103 109.116C76.9503 109.116 76.4703 109.25 76.0703 109.516C75.6837 109.77 75.3837 110.136 75.1703 110.616C74.9703 111.083 74.8703 111.643 74.8703 112.296V112.436C74.8703 113.53 75.1237 114.35 75.6303 114.896C76.1503 115.43 76.9103 115.696 77.9103 115.696C78.257 115.696 78.6437 115.656 79.0703 115.576C79.5103 115.483 79.9237 115.33 80.3103 115.116C80.5903 114.956 80.837 114.89 81.0503 114.916C81.2637 114.93 81.4303 115.003 81.5503 115.136C81.6837 115.27 81.7637 115.436 81.7903 115.636C81.817 115.823 81.777 116.016 81.6703 116.216C81.577 116.416 81.4103 116.59 81.1703 116.736C80.7037 117.03 80.1637 117.25 79.5503 117.396C78.9503 117.53 78.3903 117.596 77.8703 117.596Z" fill="#9B9B9B"/>
<path d="M85.1302 117.556C84.7302 117.556 84.4235 117.45 84.2102 117.236C83.9968 117.01 83.8902 116.69 83.8902 116.276V108.716C83.8902 108.303 83.9968 107.99 84.2102 107.776C84.4235 107.563 84.7235 107.456 85.1102 107.456C85.4968 107.456 85.7968 107.563 86.0102 107.776C86.2235 107.99 86.3302 108.303 86.3302 108.716V110.076L86.1102 109.576C86.4035 108.87 86.8568 108.336 87.4702 107.976C88.0968 107.603 88.8035 107.416 89.5902 107.416C90.3768 107.416 91.0235 107.563 91.5302 107.856C92.0368 108.15 92.4168 108.596 92.6702 109.196C92.9235 109.783 93.0502 110.53 93.0502 111.436V116.276C93.0502 116.69 92.9435 117.01 92.7302 117.236C92.5168 117.45 92.2102 117.556 91.8102 117.556C91.4102 117.556 91.0968 117.45 90.8702 117.236C90.6568 117.01 90.5502 116.69 90.5502 116.276V111.556C90.5502 110.796 90.4035 110.243 90.1102 109.896C89.8302 109.55 89.3902 109.376 88.7902 109.376C88.0568 109.376 87.4702 109.61 87.0302 110.076C86.6035 110.53 86.3902 111.136 86.3902 111.896V116.276C86.3902 117.13 85.9702 117.556 85.1302 117.556Z" fill="#9B9B9B"/>
<path d="M96.7294 109.256C96.4894 109.256 96.2761 109.17 96.0894 108.996C95.9161 108.823 95.8161 108.59 95.7894 108.296L95.4094 104.596C95.3694 104.183 95.4761 103.836 95.7294 103.556C95.9827 103.276 96.3161 103.136 96.7294 103.136C96.9961 103.136 97.2294 103.203 97.4294 103.336C97.6427 103.456 97.8027 103.63 97.9094 103.856C98.0161 104.07 98.0561 104.316 98.0294 104.596L97.6494 108.296C97.6227 108.59 97.5227 108.823 97.3494 108.996C97.1894 109.17 96.9827 109.256 96.7294 109.256Z" fill="#9B9B9B"/>
<path d="M104.933 117.596C104.066 117.596 103.339 117.45 102.753 117.156C102.179 116.863 101.753 116.436 101.473 115.876C101.193 115.303 101.053 114.596 101.053 113.756V109.496H100.013C99.6927 109.496 99.446 109.416 99.2727 109.256C99.0993 109.083 99.0127 108.85 99.0127 108.556C99.0127 108.25 99.0993 108.016 99.2727 107.856C99.446 107.696 99.6927 107.616 100.013 107.616H101.053V105.796C101.053 105.383 101.159 105.07 101.373 104.856C101.599 104.643 101.913 104.536 102.313 104.536C102.713 104.536 103.019 104.643 103.233 104.856C103.446 105.07 103.553 105.383 103.553 105.796V107.616H105.673C105.993 107.616 106.239 107.696 106.413 107.856C106.586 108.016 106.673 108.25 106.673 108.556C106.673 108.85 106.586 109.083 106.413 109.256C106.239 109.416 105.993 109.496 105.673 109.496H103.553V113.616C103.553 114.256 103.693 114.736 103.973 115.056C104.253 115.376 104.706 115.536 105.333 115.536C105.559 115.536 105.759 115.516 105.933 115.476C106.106 115.436 106.259 115.41 106.393 115.396C106.553 115.383 106.686 115.436 106.793 115.556C106.899 115.663 106.953 115.89 106.953 116.236C106.953 116.503 106.906 116.743 106.813 116.956C106.733 117.156 106.579 117.296 106.353 117.376C106.179 117.43 105.953 117.476 105.673 117.516C105.393 117.57 105.146 117.596 104.933 117.596Z" fill="#9B9B9B"/>
<path d="M117.318 117.596C116.465 117.596 115.711 117.39 115.058 116.976C114.418 116.563 113.918 115.976 113.558 115.216C113.198 114.443 113.018 113.536 113.018 112.496C113.018 111.443 113.198 110.543 113.558 109.796C113.918 109.036 114.418 108.45 115.058 108.036C115.711 107.623 116.465 107.416 117.318 107.416C118.131 107.416 118.838 107.616 119.438 108.016C120.051 108.416 120.465 108.943 120.678 109.596H120.458V104.396C120.458 103.983 120.565 103.67 120.778 103.456C120.991 103.243 121.298 103.136 121.698 103.136C122.098 103.136 122.405 103.243 122.618 103.456C122.845 103.67 122.958 103.983 122.958 104.396V116.276C122.958 116.69 122.851 117.01 122.638 117.236C122.425 117.45 122.118 117.556 121.718 117.556C121.318 117.556 121.011 117.45 120.798 117.236C120.585 117.01 120.478 116.69 120.478 116.276V114.716L120.698 115.316C120.498 116.01 120.091 116.563 119.478 116.976C118.865 117.39 118.145 117.596 117.318 117.596ZM118.018 115.696C118.511 115.696 118.945 115.576 119.318 115.336C119.691 115.096 119.978 114.743 120.178 114.276C120.391 113.796 120.498 113.203 120.498 112.496C120.498 111.43 120.271 110.636 119.818 110.116C119.365 109.583 118.765 109.316 118.018 109.316C117.525 109.316 117.091 109.436 116.718 109.676C116.345 109.903 116.051 110.256 115.838 110.736C115.638 111.203 115.538 111.79 115.538 112.496C115.538 113.55 115.765 114.35 116.218 114.896C116.671 115.43 117.271 115.696 118.018 115.696Z" fill="#9B9B9B"/>
<path d="M130.01 117.596C128.997 117.596 128.117 117.39 127.37 116.976C126.624 116.563 126.044 115.976 125.63 115.216C125.217 114.443 125.01 113.536 125.01 112.496C125.01 111.71 125.124 111.01 125.35 110.396C125.59 109.77 125.93 109.236 126.37 108.796C126.81 108.343 127.337 108.003 127.95 107.776C128.564 107.536 129.25 107.416 130.01 107.416C131.024 107.416 131.904 107.623 132.65 108.036C133.397 108.45 133.977 109.036 134.39 109.796C134.804 110.556 135.01 111.456 135.01 112.496C135.01 113.283 134.89 113.99 134.65 114.616C134.424 115.243 134.09 115.783 133.65 116.236C133.21 116.676 132.684 117.016 132.07 117.256C131.457 117.483 130.77 117.596 130.01 117.596ZM130.01 115.696C130.504 115.696 130.937 115.576 131.31 115.336C131.684 115.096 131.97 114.743 132.17 114.276C132.384 113.796 132.49 113.203 132.49 112.496C132.49 111.43 132.264 110.636 131.81 110.116C131.357 109.583 130.757 109.316 130.01 109.316C129.517 109.316 129.084 109.436 128.71 109.676C128.337 109.903 128.044 110.256 127.83 110.736C127.63 111.203 127.53 111.79 127.53 112.496C127.53 113.55 127.757 114.35 128.21 114.896C128.664 115.43 129.264 115.696 130.01 115.696Z" fill="#9B9B9B"/>
<path d="M138.314 117.556C137.914 117.556 137.607 117.45 137.394 117.236C137.18 117.01 137.074 116.69 137.074 116.276V108.716C137.074 108.303 137.18 107.99 137.394 107.776C137.607 107.563 137.907 107.456 138.294 107.456C138.68 107.456 138.98 107.563 139.194 107.776C139.407 107.99 139.514 108.303 139.514 108.716V110.076L139.294 109.576C139.587 108.87 140.04 108.336 140.654 107.976C141.28 107.603 141.987 107.416 142.774 107.416C143.56 107.416 144.207 107.563 144.714 107.856C145.22 108.15 145.6 108.596 145.854 109.196C146.107 109.783 146.234 110.53 146.234 111.436V116.276C146.234 116.69 146.127 117.01 145.914 117.236C145.7 117.45 145.394 117.556 144.994 117.556C144.594 117.556 144.28 117.45 144.054 117.236C143.84 117.01 143.734 116.69 143.734 116.276V111.556C143.734 110.796 143.587 110.243 143.294 109.896C143.014 109.55 142.574 109.376 141.974 109.376C141.24 109.376 140.654 109.61 140.214 110.076C139.787 110.53 139.574 111.136 139.574 111.896V116.276C139.574 117.13 139.154 117.556 138.314 117.556Z" fill="#9B9B9B"/>
<path d="M153.593 117.596C152.486 117.596 151.533 117.39 150.733 116.976C149.933 116.563 149.313 115.976 148.873 115.216C148.446 114.456 148.233 113.556 148.233 112.516C148.233 111.503 148.44 110.616 148.853 109.856C149.28 109.096 149.86 108.503 150.593 108.076C151.34 107.636 152.186 107.416 153.133 107.416C153.826 107.416 154.446 107.53 154.993 107.756C155.553 107.983 156.026 108.31 156.413 108.736C156.813 109.163 157.113 109.683 157.313 110.296C157.526 110.896 157.633 111.576 157.633 112.336C157.633 112.576 157.546 112.763 157.373 112.896C157.213 113.016 156.98 113.076 156.673 113.076H150.253V111.636H155.873L155.553 111.936C155.553 111.323 155.46 110.81 155.273 110.396C155.1 109.983 154.84 109.67 154.493 109.456C154.16 109.23 153.74 109.116 153.233 109.116C152.673 109.116 152.193 109.25 151.793 109.516C151.406 109.77 151.106 110.136 150.893 110.616C150.693 111.083 150.593 111.643 150.593 112.296V112.436C150.593 113.53 150.846 114.35 151.353 114.896C151.873 115.43 152.633 115.696 153.633 115.696C153.98 115.696 154.366 115.656 154.793 115.576C155.233 115.483 155.646 115.33 156.033 115.116C156.313 114.956 156.56 114.89 156.773 114.916C156.986 114.93 157.153 115.003 157.273 115.136C157.406 115.27 157.486 115.436 157.513 115.636C157.54 115.823 157.5 116.016 157.393 116.216C157.3 116.416 157.133 116.59 156.893 116.736C156.426 117.03 155.886 117.25 155.273 117.396C154.673 117.53 154.113 117.596 153.593 117.596Z" fill="#9B9B9B"/>
<path d="M166.283 117.536C165.883 117.536 165.576 117.416 165.363 117.176C165.149 116.936 165.043 116.603 165.043 116.176V108.836C165.043 108.396 165.149 108.063 165.363 107.836C165.576 107.596 165.883 107.476 166.283 107.476C166.683 107.476 166.989 107.596 167.203 107.836C167.429 108.063 167.543 108.396 167.543 108.836V116.176C167.543 116.603 167.436 116.936 167.223 117.176C167.009 117.416 166.696 117.536 166.283 117.536ZM166.283 105.616C165.816 105.616 165.449 105.503 165.183 105.276C164.929 105.036 164.803 104.71 164.803 104.296C164.803 103.87 164.929 103.543 165.183 103.316C165.449 103.09 165.816 102.976 166.283 102.976C166.763 102.976 167.129 103.09 167.383 103.316C167.636 103.543 167.763 103.87 167.763 104.296C167.763 104.71 167.636 105.036 167.383 105.276C167.129 105.503 166.763 105.616 166.283 105.616Z" fill="#9B9B9B"/>
<path d="M174.62 117.596C173.754 117.596 173.027 117.45 172.44 117.156C171.867 116.863 171.44 116.436 171.16 115.876C170.88 115.303 170.74 114.596 170.74 113.756V109.496H169.7C169.38 109.496 169.134 109.416 168.96 109.256C168.787 109.083 168.7 108.85 168.7 108.556C168.7 108.25 168.787 108.016 168.96 107.856C169.134 107.696 169.38 107.616 169.7 107.616H170.74V105.796C170.74 105.383 170.847 105.07 171.06 104.856C171.287 104.643 171.6 104.536 172 104.536C172.4 104.536 172.707 104.643 172.92 104.856C173.134 105.07 173.24 105.383 173.24 105.796V107.616H175.36C175.68 107.616 175.927 107.696 176.1 107.856C176.274 108.016 176.36 108.25 176.36 108.556C176.36 108.85 176.274 109.083 176.1 109.256C175.927 109.416 175.68 109.496 175.36 109.496H173.24V113.616C173.24 114.256 173.38 114.736 173.66 115.056C173.94 115.376 174.394 115.536 175.02 115.536C175.247 115.536 175.447 115.516 175.62 115.476C175.794 115.436 175.947 115.41 176.08 115.396C176.24 115.383 176.374 115.436 176.48 115.556C176.587 115.663 176.64 115.89 176.64 116.236C176.64 116.503 176.594 116.743 176.5 116.956C176.42 117.156 176.267 117.296 176.04 117.376C175.867 117.43 175.64 117.476 175.36 117.516C175.08 117.57 174.834 117.596 174.62 117.596Z" fill="#9B9B9B"/>
<path d="M185.726 121.156C185.432 121.156 185.192 121.076 185.006 120.916C184.819 120.77 184.706 120.57 184.666 120.316C184.639 120.063 184.686 119.796 184.806 119.516L186.166 116.496V117.536L182.526 109.116C182.406 108.823 182.366 108.55 182.406 108.296C182.446 108.043 182.566 107.843 182.766 107.696C182.979 107.536 183.266 107.456 183.626 107.456C183.932 107.456 184.179 107.53 184.366 107.676C184.552 107.81 184.719 108.07 184.866 108.456L187.566 115.196H186.966L189.726 108.436C189.872 108.063 190.046 107.81 190.246 107.676C190.446 107.53 190.712 107.456 191.046 107.456C191.339 107.456 191.572 107.536 191.746 107.696C191.919 107.843 192.026 108.043 192.066 108.296C192.106 108.536 192.059 108.803 191.926 109.096L187.066 120.196C186.892 120.57 186.706 120.823 186.506 120.956C186.306 121.09 186.046 121.156 185.726 121.156Z" fill="#9B9B9B"/>
<path d="M198.398 117.596C197.291 117.596 196.338 117.39 195.538 116.976C194.738 116.563 194.118 115.976 193.678 115.216C193.251 114.456 193.038 113.556 193.038 112.516C193.038 111.503 193.244 110.616 193.658 109.856C194.084 109.096 194.664 108.503 195.398 108.076C196.144 107.636 196.991 107.416 197.938 107.416C198.631 107.416 199.251 107.53 199.798 107.756C200.358 107.983 200.831 108.31 201.218 108.736C201.618 109.163 201.918 109.683 202.118 110.296C202.331 110.896 202.438 111.576 202.438 112.336C202.438 112.576 202.351 112.763 202.178 112.896C202.018 113.016 201.784 113.076 201.478 113.076H195.058V111.636H200.678L200.358 111.936C200.358 111.323 200.264 110.81 200.078 110.396C199.904 109.983 199.644 109.67 199.298 109.456C198.964 109.23 198.544 109.116 198.038 109.116C197.478 109.116 196.998 109.25 196.598 109.516C196.211 109.77 195.911 110.136 195.698 110.616C195.498 111.083 195.398 111.643 195.398 112.296V112.436C195.398 113.53 195.651 114.35 196.158 114.896C196.678 115.43 197.438 115.696 198.438 115.696C198.784 115.696 199.171 115.656 199.598 115.576C200.038 115.483 200.451 115.33 200.838 115.116C201.118 114.956 201.364 114.89 201.578 114.916C201.791 114.93 201.958 115.003 202.078 115.136C202.211 115.27 202.291 115.436 202.318 115.636C202.344 115.823 202.304 116.016 202.198 116.216C202.104 116.416 201.938 116.59 201.698 116.736C201.231 117.03 200.691 117.25 200.078 117.396C199.478 117.53 198.918 117.596 198.398 117.596Z" fill="#9B9B9B"/>
<path d="M208.858 117.596C207.992 117.596 207.265 117.45 206.678 117.156C206.105 116.863 205.678 116.436 205.398 115.876C205.118 115.303 204.978 114.596 204.978 113.756V109.496H203.938C203.618 109.496 203.372 109.416 203.198 109.256C203.025 109.083 202.938 108.85 202.938 108.556C202.938 108.25 203.025 108.016 203.198 107.856C203.372 107.696 203.618 107.616 203.938 107.616H204.978V105.796C204.978 105.383 205.085 105.07 205.298 104.856C205.525 104.643 205.838 104.536 206.238 104.536C206.638 104.536 206.945 104.643 207.158 104.856C207.372 105.07 207.478 105.383 207.478 105.796V107.616H209.598C209.918 107.616 210.165 107.696 210.338 107.856C210.512 108.016 210.598 108.25 210.598 108.556C210.598 108.85 210.512 109.083 210.338 109.256C210.165 109.416 209.918 109.496 209.598 109.496H207.478V113.616C207.478 114.256 207.618 114.736 207.898 115.056C208.178 115.376 208.632 115.536 209.258 115.536C209.485 115.536 209.685 115.516 209.858 115.476C210.032 115.436 210.185 115.41 210.318 115.396C210.478 115.383 210.612 115.436 210.718 115.556C210.825 115.663 210.878 115.89 210.878 116.236C210.878 116.503 210.832 116.743 210.738 116.956C210.658 117.156 210.505 117.296 210.278 117.376C210.105 117.43 209.878 117.476 209.598 117.516C209.318 117.57 209.072 117.596 208.858 117.596Z" fill="#9B9B9B"/>
<path d="M71.591 144.596C70.4844 144.596 69.531 144.39 68.731 143.976C67.931 143.563 67.311 142.976 66.871 142.216C66.4444 141.456 66.231 140.556 66.231 139.516C66.231 138.503 66.4377 137.616 66.851 136.856C67.2777 136.096 67.8577 135.503 68.591 135.076C69.3377 134.636 70.1844 134.416 71.131 134.416C71.8244 134.416 72.4444 134.53 72.991 134.756C73.551 134.983 74.0244 135.31 74.411 135.736C74.811 136.163 75.111 136.683 75.311 137.296C75.5244 137.896 75.631 138.576 75.631 139.336C75.631 139.576 75.5444 139.763 75.371 139.896C75.211 140.016 74.9777 140.076 74.671 140.076H68.251V138.636H73.871L73.551 138.936C73.551 138.323 73.4577 137.81 73.271 137.396C73.0977 136.983 72.8377 136.67 72.491 136.456C72.1577 136.23 71.7377 136.116 71.231 136.116C70.671 136.116 70.191 136.25 69.791 136.516C69.4044 136.77 69.1044 137.136 68.891 137.616C68.691 138.083 68.591 138.643 68.591 139.296V139.436C68.591 140.53 68.8444 141.35 69.351 141.896C69.871 142.43 70.631 142.696 71.631 142.696C71.9777 142.696 72.3644 142.656 72.791 142.576C73.231 142.483 73.6444 142.33 74.031 142.116C74.311 141.956 74.5577 141.89 74.771 141.916C74.9844 141.93 75.151 142.003 75.271 142.136C75.4044 142.27 75.4844 142.436 75.511 142.636C75.5377 142.823 75.4977 143.016 75.391 143.216C75.2977 143.416 75.131 143.59 74.891 143.736C74.4244 144.03 73.8844 144.25 73.271 144.396C72.671 144.53 72.111 144.596 71.591 144.596Z" fill="#9B9B9B"/>
<path d="M78.2323 144.496C77.9389 144.496 77.6923 144.416 77.4923 144.256C77.3056 144.083 77.2056 143.863 77.1923 143.596C77.1923 143.33 77.3056 143.05 77.5323 142.756L80.7723 138.756V139.936L77.7323 136.196C77.4923 135.903 77.379 135.623 77.3923 135.356C77.4056 135.09 77.5056 134.876 77.6923 134.716C77.8923 134.543 78.139 134.456 78.4323 134.456C78.739 134.456 78.9923 134.51 79.1923 134.616C79.4056 134.723 79.599 134.89 79.7723 135.116L82.1723 138.196H81.2923L83.7123 135.116C83.899 134.89 84.0923 134.723 84.2923 134.616C84.4923 134.51 84.739 134.456 85.0323 134.456C85.339 134.456 85.5856 134.543 85.7723 134.716C85.959 134.89 86.0523 135.11 86.0523 135.376C86.0656 135.643 85.9523 135.923 85.7123 136.216L82.6923 139.916V138.796L85.9323 142.756C86.1723 143.036 86.2856 143.31 86.2723 143.576C86.2589 143.843 86.1523 144.063 85.9523 144.236C85.7656 144.41 85.519 144.496 85.2123 144.496C84.919 144.496 84.6723 144.443 84.4723 144.336C84.2723 144.23 84.079 144.063 83.8923 143.836L81.2923 140.556H82.1323L79.5523 143.836C79.379 144.05 79.1923 144.216 78.9923 144.336C78.7923 144.443 78.5389 144.496 78.2323 144.496Z" fill="#9B9B9B"/>
<path d="M93.0364 144.596C91.9297 144.596 90.9764 144.39 90.1764 143.976C89.3764 143.563 88.7564 142.976 88.3164 142.216C87.8897 141.456 87.6764 140.556 87.6764 139.516C87.6764 138.503 87.883 137.616 88.2963 136.856C88.723 136.096 89.303 135.503 90.0364 135.076C90.783 134.636 91.6297 134.416 92.5763 134.416C93.2697 134.416 93.8897 134.53 94.4363 134.756C94.9963 134.983 95.4697 135.31 95.8564 135.736C96.2564 136.163 96.5564 136.683 96.7563 137.296C96.9697 137.896 97.0763 138.576 97.0763 139.336C97.0763 139.576 96.9897 139.763 96.8164 139.896C96.6563 140.016 96.423 140.076 96.1163 140.076H89.6964V138.636H95.3164L94.9964 138.936C94.9964 138.323 94.903 137.81 94.7164 137.396C94.543 136.983 94.283 136.67 93.9363 136.456C93.603 136.23 93.183 136.116 92.6764 136.116C92.1164 136.116 91.6364 136.25 91.2364 136.516C90.8497 136.77 90.5497 137.136 90.3363 137.616C90.1364 138.083 90.0364 138.643 90.0364 139.296V139.436C90.0364 140.53 90.2897 141.35 90.7963 141.896C91.3163 142.43 92.0763 142.696 93.0763 142.696C93.423 142.696 93.8097 142.656 94.2364 142.576C94.6764 142.483 95.0897 142.33 95.4763 142.116C95.7563 141.956 96.003 141.89 96.2164 141.916C96.4297 141.93 96.5964 142.003 96.7164 142.136C96.8497 142.27 96.9297 142.436 96.9564 142.636C96.983 142.823 96.943 143.016 96.8363 143.216C96.743 143.416 96.5763 143.59 96.3363 143.736C95.8697 144.03 95.3297 144.25 94.7164 144.396C94.1164 144.53 93.5564 144.596 93.0364 144.596Z" fill="#9B9B9B"/>
<path d="M100.336 144.556C99.9229 144.556 99.6029 144.45 99.3762 144.236C99.1629 144.01 99.0562 143.69 99.0562 143.276V135.716C99.0562 135.303 99.1629 134.99 99.3762 134.776C99.5895 134.563 99.8895 134.456 100.276 134.456C100.663 134.456 100.963 134.563 101.176 134.776C101.39 134.99 101.496 135.303 101.496 135.716V136.976H101.296C101.483 136.176 101.85 135.57 102.396 135.156C102.943 134.743 103.67 134.496 104.576 134.416C104.856 134.39 105.076 134.463 105.236 134.636C105.41 134.796 105.51 135.05 105.536 135.396C105.563 135.73 105.483 136.003 105.296 136.216C105.123 136.416 104.856 136.536 104.496 136.576L104.056 136.616C103.243 136.696 102.63 136.95 102.216 137.376C101.803 137.79 101.596 138.376 101.596 139.136V143.276C101.596 143.69 101.49 144.01 101.276 144.236C101.063 144.45 100.75 144.556 100.336 144.556Z" fill="#9B9B9B"/>
<path d="M111.252 144.596C110.225 144.596 109.332 144.39 108.572 143.976C107.812 143.55 107.225 142.95 106.812 142.176C106.399 141.403 106.192 140.496 106.192 139.456C106.192 138.67 106.305 137.97 106.532 137.356C106.772 136.73 107.112 136.203 107.552 135.776C107.992 135.336 108.525 135.003 109.152 134.776C109.779 134.536 110.479 134.416 111.252 134.416C111.692 134.416 112.165 134.476 112.672 134.596C113.192 134.716 113.679 134.916 114.132 135.196C114.345 135.33 114.485 135.49 114.552 135.676C114.619 135.863 114.632 136.056 114.592 136.256C114.552 136.443 114.465 136.61 114.332 136.756C114.212 136.89 114.059 136.976 113.872 137.016C113.685 137.043 113.479 136.996 113.252 136.876C112.959 136.703 112.659 136.576 112.352 136.496C112.045 136.403 111.752 136.356 111.472 136.356C111.032 136.356 110.645 136.43 110.312 136.576C109.979 136.71 109.692 136.91 109.452 137.176C109.225 137.43 109.052 137.75 108.932 138.136C108.812 138.523 108.752 138.97 108.752 139.476C108.752 140.463 108.985 141.243 109.452 141.816C109.932 142.376 110.605 142.656 111.472 142.656C111.752 142.656 112.039 142.616 112.332 142.536C112.639 142.456 112.945 142.33 113.252 142.156C113.479 142.036 113.679 141.996 113.852 142.036C114.039 142.076 114.192 142.17 114.312 142.316C114.432 142.45 114.505 142.616 114.532 142.816C114.559 143.003 114.532 143.19 114.452 143.376C114.385 143.563 114.252 143.716 114.052 143.836C113.612 144.103 113.145 144.296 112.652 144.416C112.159 144.536 111.692 144.596 111.252 144.596Z" fill="#9B9B9B"/>
<path d="M117.406 144.536C117.006 144.536 116.699 144.416 116.486 144.176C116.272 143.936 116.166 143.603 116.166 143.176V135.836C116.166 135.396 116.272 135.063 116.486 134.836C116.699 134.596 117.006 134.476 117.406 134.476C117.806 134.476 118.112 134.596 118.326 134.836C118.552 135.063 118.666 135.396 118.666 135.836V143.176C118.666 143.603 118.559 143.936 118.346 144.176C118.132 144.416 117.819 144.536 117.406 144.536ZM117.406 132.616C116.939 132.616 116.572 132.503 116.306 132.276C116.052 132.036 115.926 131.71 115.926 131.296C115.926 130.87 116.052 130.543 116.306 130.316C116.572 130.09 116.939 129.976 117.406 129.976C117.886 129.976 118.252 130.09 118.506 130.316C118.759 130.543 118.886 130.87 118.886 131.296C118.886 131.71 118.759 132.036 118.506 132.276C118.252 132.503 117.886 132.616 117.406 132.616Z" fill="#9B9B9B"/>
<path d="M124.843 144.596C124.27 144.596 123.663 144.536 123.023 144.416C122.383 144.296 121.81 144.09 121.303 143.796C121.09 143.663 120.937 143.51 120.843 143.336C120.763 143.15 120.73 142.97 120.743 142.796C120.77 142.61 120.837 142.45 120.943 142.316C121.063 142.183 121.21 142.096 121.383 142.056C121.57 142.016 121.77 142.05 121.983 142.156C122.517 142.41 123.017 142.59 123.483 142.696C123.95 142.79 124.41 142.836 124.863 142.836C125.503 142.836 125.977 142.73 126.283 142.516C126.603 142.29 126.763 141.996 126.763 141.636C126.763 141.33 126.657 141.096 126.443 140.936C126.243 140.763 125.937 140.636 125.523 140.556L123.523 140.176C122.697 140.016 122.063 139.716 121.623 139.276C121.197 138.823 120.983 138.243 120.983 137.536C120.983 136.896 121.157 136.343 121.503 135.876C121.863 135.41 122.357 135.05 122.983 134.796C123.61 134.543 124.33 134.416 125.143 134.416C125.73 134.416 126.277 134.483 126.783 134.616C127.303 134.736 127.803 134.93 128.283 135.196C128.483 135.303 128.617 135.443 128.683 135.616C128.763 135.79 128.783 135.97 128.743 136.156C128.703 136.33 128.623 136.49 128.503 136.636C128.383 136.77 128.23 136.856 128.043 136.896C127.87 136.923 127.67 136.883 127.443 136.776C127.03 136.563 126.63 136.41 126.243 136.316C125.87 136.223 125.51 136.176 125.163 136.176C124.51 136.176 124.023 136.29 123.703 136.516C123.397 136.743 123.243 137.043 123.243 137.416C123.243 137.696 123.337 137.93 123.523 138.116C123.71 138.303 123.997 138.43 124.383 138.496L126.383 138.876C127.25 139.036 127.903 139.33 128.343 139.756C128.797 140.183 129.023 140.756 129.023 141.476C129.023 142.45 128.643 143.216 127.883 143.776C127.123 144.323 126.11 144.596 124.843 144.596Z" fill="#9B9B9B"/>
<path d="M135.849 144.596C134.742 144.596 133.789 144.39 132.989 143.976C132.189 143.563 131.569 142.976 131.129 142.216C130.702 141.456 130.489 140.556 130.489 139.516C130.489 138.503 130.696 137.616 131.109 136.856C131.536 136.096 132.116 135.503 132.849 135.076C133.596 134.636 134.442 134.416 135.389 134.416C136.082 134.416 136.702 134.53 137.249 134.756C137.809 134.983 138.282 135.31 138.669 135.736C139.069 136.163 139.369 136.683 139.569 137.296C139.782 137.896 139.889 138.576 139.889 139.336C139.889 139.576 139.802 139.763 139.629 139.896C139.469 140.016 139.236 140.076 138.929 140.076H132.509V138.636H138.129L137.809 138.936C137.809 138.323 137.716 137.81 137.529 137.396C137.356 136.983 137.096 136.67 136.749 136.456C136.416 136.23 135.996 136.116 135.489 136.116C134.929 136.116 134.449 136.25 134.049 136.516C133.662 136.77 133.362 137.136 133.149 137.616C132.949 138.083 132.849 138.643 132.849 139.296V139.436C132.849 140.53 133.102 141.35 133.609 141.896C134.129 142.43 134.889 142.696 135.889 142.696C136.236 142.696 136.622 142.656 137.049 142.576C137.489 142.483 137.902 142.33 138.289 142.116C138.569 141.956 138.816 141.89 139.029 141.916C139.242 141.93 139.409 142.003 139.529 142.136C139.662 142.27 139.742 142.436 139.769 142.636C139.796 142.823 139.756 143.016 139.649 143.216C139.556 143.416 139.389 143.59 139.149 143.736C138.682 144.03 138.142 144.25 137.529 144.396C136.929 144.53 136.369 144.596 135.849 144.596Z" fill="#9B9B9B"/>
<path d="M145.449 144.596C144.875 144.596 144.269 144.536 143.629 144.416C142.989 144.296 142.415 144.09 141.909 143.796C141.695 143.663 141.542 143.51 141.449 143.336C141.369 143.15 141.335 142.97 141.349 142.796C141.375 142.61 141.442 142.45 141.549 142.316C141.669 142.183 141.815 142.096 141.989 142.056C142.175 142.016 142.375 142.05 142.589 142.156C143.122 142.41 143.622 142.59 144.089 142.696C144.555 142.79 145.015 142.836 145.469 142.836C146.109 142.836 146.582 142.73 146.889 142.516C147.209 142.29 147.369 141.996 147.369 141.636C147.369 141.33 147.262 141.096 147.049 140.936C146.849 140.763 146.542 140.636 146.129 140.556L144.129 140.176C143.302 140.016 142.669 139.716 142.229 139.276C141.802 138.823 141.589 138.243 141.589 137.536C141.589 136.896 141.762 136.343 142.109 135.876C142.469 135.41 142.962 135.05 143.589 134.796C144.215 134.543 144.935 134.416 145.749 134.416C146.335 134.416 146.882 134.483 147.389 134.616C147.909 134.736 148.409 134.93 148.889 135.196C149.089 135.303 149.222 135.443 149.289 135.616C149.369 135.79 149.389 135.97 149.349 136.156C149.309 136.33 149.229 136.49 149.109 136.636C148.989 136.77 148.835 136.856 148.649 136.896C148.475 136.923 148.275 136.883 148.049 136.776C147.635 136.563 147.235 136.41 146.849 136.316C146.475 136.223 146.115 136.176 145.769 136.176C145.115 136.176 144.629 136.29 144.309 136.516C144.002 136.743 143.849 137.043 143.849 137.416C143.849 137.696 143.942 137.93 144.129 138.116C144.315 138.303 144.602 138.43 144.989 138.496L146.989 138.876C147.855 139.036 148.509 139.33 148.949 139.756C149.402 140.183 149.629 140.756 149.629 141.476C149.629 142.45 149.249 143.216 148.489 143.776C147.729 144.323 146.715 144.596 145.449 144.596Z" fill="#9B9B9B"/>
</svg>
