<svg width="73" height="73" viewBox="0 0 73 73" fill="none" xmlns="http://www.w3.org/2000/svg">
<rect width="73" height="73" rx="9.74359" fill="white"/>
<path d="M31.9622 49.731C30.6591 48.1169 29.4763 46.6513 28.2919 45.1872C26.8247 43.3731 25.345 41.5685 23.8903 39.7419C22.5591 38.07 22.3559 36.1685 23.5528 34.7513C24.1559 34.0388 25.0544 33.4872 25.9263 33.1122C27.1309 32.5935 28.4263 32.2622 29.7028 31.9325C33.1606 31.0419 36.381 29.57 39.5763 28.0231C39.945 27.845 40.3435 27.7185 40.7388 27.606C42.22 27.1872 43.5638 27.8231 44.1028 29.1794C44.631 30.5091 44.0888 32.0575 42.745 32.67C39.8497 33.9903 36.92 35.2356 34.0044 36.5122C33.8466 36.581 33.6888 36.6513 33.4544 36.7544C34.8356 38.4716 36.1763 40.1388 37.5513 41.8466C38.8622 40.8591 40.1075 39.8903 41.3888 38.97C41.9934 38.5356 42.6372 38.1341 43.3106 37.8185C45.2794 36.895 47.2653 36.0044 49.2606 35.1372C49.8231 34.8935 50.4325 34.6856 51.0372 34.6247C52.2278 34.5044 53.3825 35.3794 53.7388 36.5513C54.1138 37.7825 53.6106 39.1028 52.4638 39.7685C50.4481 40.9419 48.4028 42.0622 46.4028 43.2622C45.5888 43.7497 44.8091 44.3247 44.1091 44.9638C42.4653 46.4653 40.8778 48.031 39.1013 49.7294C39.5544 49.7294 39.8185 49.7294 40.0841 49.7294C44.7528 49.7294 49.4216 49.7294 54.0903 49.7294C54.3231 49.7294 54.6138 49.6544 54.7778 49.7638C55.0481 49.945 55.4372 50.27 55.4122 50.4935C55.3809 50.781 55.0185 51.0669 54.7403 51.2763C54.6059 51.3778 54.3388 51.3044 54.131 51.3044C42.7966 51.3044 31.4606 51.3044 20.1263 51.3044C19.97 51.3044 19.8153 51.3044 19.6591 51.3013C19.1309 51.2935 18.795 51.0185 18.8075 50.5013C18.82 49.9841 19.1731 49.7294 19.695 49.731C19.9544 49.731 20.2138 49.731 20.4731 49.731C24.2325 49.731 27.9903 49.731 31.9606 49.731H31.9622ZM35.631 49.7278C36.4341 49.7122 37.2075 49.3513 37.8716 48.7106C39.7934 46.8575 41.72 45.0075 43.6591 43.1716C43.9747 42.8731 44.3372 42.6075 44.7122 42.3888C46.9747 41.0763 49.2497 39.7841 51.5169 38.481C52.2153 38.0794 52.4419 37.4778 52.1466 36.8544C51.8747 36.281 51.3138 36.1919 50.5591 36.2778C49.9388 36.3481 49.5669 36.7716 49.056 36.97C45.1185 38.4997 41.4794 40.5325 38.2622 43.2966C37.4653 43.981 37.1591 43.895 36.4763 43.0497C34.9153 41.1122 33.3544 39.1747 31.7981 37.2325C31.0013 36.2388 31.1559 35.881 32.345 35.3903C35.5466 34.0653 38.7294 32.6935 41.9091 31.3169C42.6216 31.0091 42.8544 30.4278 42.6278 29.806C42.3888 29.1497 41.8372 29.0028 41.0434 29.0856C40.4216 29.1513 40.0388 29.5372 39.5591 29.7919C35.4591 31.9669 31.0419 33.2685 26.5981 34.4856C24.4263 35.081 23.7075 37.0981 25.0966 38.7997C27.6684 41.9497 30.2278 45.1091 32.8013 48.2575C33.4981 49.1106 34.3528 49.706 35.6325 49.7263L35.631 49.7278Z" fill="#2D2D2D"/>
<path d="M21.2091 26.9919C21.22 24.5481 23.1794 22.6216 25.6341 22.6434C28.0231 22.6637 29.97 24.6387 29.9591 27.0309C29.9481 29.4528 27.9591 31.4012 25.5169 31.3809C23.1216 31.3606 21.1997 29.4028 21.2091 26.9919ZM22.7981 26.9559C22.7763 28.5325 23.9997 29.795 25.556 29.8044C27.07 29.8137 28.3278 28.5887 28.3685 27.0669C28.4091 25.5325 27.1388 24.2309 25.5903 24.22C24.0622 24.2091 22.8185 25.4262 22.7981 26.9544V26.9559Z" fill="#2D2D2D"/>
</svg>
