<svg width="14" height="18" viewBox="0 0 14 18" fill="none" xmlns="http://www.w3.org/2000/svg">
<path fill-rule="evenodd" clip-rule="evenodd" d="M7.50863 1.87923C5.82318 1.87923 4.45685 3.24555 4.45685 4.931C4.45685 6.61645 5.82318 7.98278 7.50863 7.98278C9.19408 7.98278 10.5604 6.61645 10.5604 4.931C10.5604 3.24555 9.19408 1.87923 7.50863 1.87923ZM3.43959 4.931C3.43959 2.68374 5.26136 0.861969 7.50863 0.861969C9.7559 0.861969 11.5777 2.68374 11.5777 4.931C11.5777 7.17827 9.7559 9.00004 7.50863 9.00004C5.26136 9.00004 3.43959 7.17827 3.43959 4.931Z" fill="#FB8708"/>
<path fill-rule="evenodd" clip-rule="evenodd" d="M10.1172 6.69672C10.378 6.5924 10.674 6.71926 10.7783 6.98007C11.0729 7.71639 11.4146 8.39913 11.8529 9.08104L11.8551 9.08447L12.4645 10.0494L12.465 10.0501C13.2326 11.2566 13.6122 12.6749 13.6122 14.0863C13.6122 14.2838 13.4979 14.4635 13.319 14.5471L9.39759 16.3805C7.7366 17.1355 5.80009 17.1147 4.16676 16.3125L3.89453 16.8569C3.7689 17.1082 3.46338 17.21 3.21213 17.0844C2.96088 16.9588 2.85904 16.6533 2.98466 16.402L3.49329 15.3848C3.55702 15.2573 3.67131 15.1624 3.80832 15.1232C3.94534 15.084 4.09251 15.1041 4.21401 15.1786C5.64251 16.0541 7.44629 16.149 8.97421 15.4555L12.5874 13.7662C12.5349 12.6422 12.2058 11.5375 11.6063 10.5955L11.6054 10.5941L10.9961 9.62939C10.5195 8.88771 10.1494 8.14683 9.83384 7.35787C9.72951 7.09706 9.85637 6.80105 10.1172 6.69672Z" fill="#FB8708"/>
<path fill-rule="evenodd" clip-rule="evenodd" d="M8.52589 8.49141C8.8068 8.49141 9.03452 8.71913 9.03452 9.00004C9.03452 10.0144 9.07358 10.4757 9.14378 10.7997C9.19122 11.0186 9.24812 11.1679 9.33528 11.3966C9.38426 11.5251 9.4428 11.6787 9.51459 11.8838C9.56905 12.0394 9.54473 12.2117 9.44935 12.3461C9.35397 12.4806 9.19935 12.5604 9.03452 12.5604H8.52589C8.35137 12.5604 8.18904 12.471 8.09585 12.3234C7.58458 11.5139 6.68424 11.0346 5.67756 11.0346H4.45685C4.17594 11.0346 3.94822 10.8068 3.94822 10.5259C3.94822 10.245 4.17594 10.0173 4.45685 10.0173H5.67756C6.57957 10.0173 7.43711 10.3102 8.11716 10.8476C8.04591 10.4327 8.01726 9.89502 8.01726 9.00004C8.01726 8.71913 8.24498 8.49141 8.52589 8.49141Z" fill="#FB8708"/>
<path fill-rule="evenodd" clip-rule="evenodd" d="M7.50863 4.42238C7.22772 4.42238 7 4.6501 7 4.931C7 5.21191 7.22772 5.43963 7.50863 5.43963C7.78954 5.43963 8.01726 5.21191 8.01726 4.931C8.01726 4.6501 7.78954 4.42238 7.50863 4.42238ZM5.98274 4.931C5.98274 4.08828 6.6659 3.40512 7.50863 3.40512C8.35135 3.40512 9.03452 4.08828 9.03452 4.931C9.03452 5.77373 8.35135 6.45689 7.50863 6.45689C6.6659 6.45689 5.98274 5.77373 5.98274 4.931Z" fill="#FB8708"/>
<path fill-rule="evenodd" clip-rule="evenodd" d="M5.72481 3.14719C5.92344 2.94855 6.24549 2.94855 6.44412 3.14719L7.1562 3.85927C7.35484 4.0579 7.35484 4.37995 7.1562 4.57858C6.95757 4.77721 6.63553 4.77721 6.43689 4.57858L5.72481 3.8665C5.52618 3.66787 5.52618 3.34582 5.72481 3.14719Z" fill="#FB8708"/>
<path fill-rule="evenodd" clip-rule="evenodd" d="M7.1562 5.28343C7.35484 5.48206 7.35484 5.80411 7.1562 6.00274L6.44412 6.71482C6.24549 6.91345 5.92344 6.91345 5.72481 6.71482C5.52618 6.51619 5.52618 6.19414 5.72481 5.99551L6.43689 5.28343C6.63553 5.0848 6.95757 5.0848 7.1562 5.28343Z" fill="#FB8708"/>
<path fill-rule="evenodd" clip-rule="evenodd" d="M7.86106 5.28343C8.05969 5.0848 8.38173 5.0848 8.58037 5.28343L9.29245 5.99551C9.49108 6.19414 9.49108 6.51619 9.29245 6.71482C9.09381 6.91345 8.77177 6.91345 8.57314 6.71482L7.86106 6.00274C7.66242 5.80411 7.66242 5.48206 7.86106 5.28343Z" fill="#FB8708"/>
<path fill-rule="evenodd" clip-rule="evenodd" d="M9.29245 3.14719C9.49108 3.34582 9.49108 3.66787 9.29245 3.8665L8.58037 4.57858C8.38173 4.77721 8.05969 4.77721 7.86106 4.57858C7.66242 4.37995 7.66242 4.0579 7.86106 3.85927L8.57314 3.14719C8.77177 2.94855 9.09381 2.94855 9.29245 3.14719Z" fill="#FB8708"/>
<path fill-rule="evenodd" clip-rule="evenodd" d="M0.387817 7.98278C0.387817 7.70187 0.615539 7.47415 0.896447 7.47415C2.01071 7.47415 2.99436 7.94381 3.73372 8.6263C3.7387 8.6309 3.74359 8.63559 3.74839 8.64038C4.49664 9.38864 4.96548 10.3797 4.96548 11.5432C4.96548 11.8241 4.73776 12.0518 4.45685 12.0518C4.17594 12.0518 3.94822 11.8241 3.94822 11.5432C3.94822 10.6758 3.60613 9.94004 3.03625 9.36689C2.45428 8.83262 1.71147 8.49141 0.896447 8.49141C0.615539 8.49141 0.387817 8.26369 0.387817 7.98278Z" fill="#FB8708"/>
</svg>
