<svg width="16" height="17" viewBox="0 0 16 17" fill="none" xmlns="http://www.w3.org/2000/svg">
<g clip-path="url(#clip0_18_374)">
<path d="M16 13.1262C15.8663 13.1169 15.7325 13.1 15.5994 13.1C10.5675 13.0987 5.535 13.0987 0.503125 13.0987C0.37 13.0987 0.23625 13.0987 0.0831251 13.0987V12.4669H3.61063C3.49625 12.3769 3.44875 12.3381 3.39937 12.3012C3.01375 12.0087 2.89937 11.5294 3.15 11.1075C3.37813 10.7237 3.63188 10.3537 3.895 9.99311C4.02125 9.81998 4.02875 9.67561 3.95062 9.48248C3.78 9.05873 3.64875 8.61873 3.47563 8.19623C3.27938 7.71623 3.20125 7.23936 3.39937 6.72936C3.11437 7.14373 2.7675 7.46498 2.27813 7.59123C1.78188 7.71936 1.31063 7.65686 0.875625 7.37873C0.171875 6.92936 -0.115625 6.05373 0.181875 5.27248C0.469375 4.51686 1.26875 4.03373 2.03563 4.15248C3.02875 4.30623 3.50688 4.95123 3.57 6.26123C3.88375 5.66623 4.33687 5.32811 4.99625 5.37498C5.21688 5.39061 5.44563 5.46311 5.64563 5.56061C8.85062 7.12561 12.0513 8.69811 15.2531 10.2694C15.7019 10.4894 15.9675 10.835 15.9556 11.3512C15.9431 11.8844 15.6394 12.2081 15.1625 12.4531C15.2969 12.4531 15.4319 12.455 15.5663 12.4531C15.7113 12.4506 15.8556 12.4431 16.0006 12.4381V13.1256L16 13.1262ZM4.87937 5.96373C4.72375 6.03998 4.54 6.09436 4.4 6.20498C4.08 6.45748 3.85063 7.33811 3.9875 7.72998C4.19688 8.32811 4.40562 8.92686 4.63625 9.51686C4.73125 9.75936 4.7025 9.94561 4.5525 10.1512C4.28375 10.5206 4.03813 10.9075 3.77875 11.2844C3.66812 11.445 3.54625 11.6144 3.75125 11.7737C3.9625 11.9381 4.11625 11.795 4.245 11.6269C4.57312 11.1975 4.88937 10.7581 5.23125 10.34C5.41313 10.1169 5.465 9.90873 5.3775 9.62686C5.23688 9.17061 5.13625 8.70186 5.0225 8.23748C4.97188 8.03061 5.0575 7.85186 5.25688 7.84436C5.37875 7.83936 5.52187 7.97873 5.62687 8.08248C5.68437 8.13936 5.69625 8.25561 5.70375 8.34748C5.72375 8.58373 5.86062 8.66561 6.07562 8.72748C7.26937 9.07186 8.47562 9.38311 9.64313 9.80248C11.3 10.3975 12.9263 11.0769 14.5669 11.7181C14.8969 11.8469 15.1713 11.7606 15.2856 11.505C15.4044 11.2381 15.295 11.0031 14.955 10.8362C11.7544 9.26436 8.55312 7.69373 5.35063 6.12686C5.21375 6.05998 5.06125 6.02623 4.87875 5.96498L4.87937 5.96373ZM6.08563 9.41436C6.03313 9.76061 6.08125 10.1706 5.90938 10.4369C5.45375 11.1431 4.9025 11.7875 4.40938 12.4306H14.5281C11.7138 11.3344 8.97937 10.0337 6.08625 9.41373L6.08563 9.41436ZM1.80625 7.01123C2.43938 7.01436 2.93 6.52373 2.9275 5.89123C2.925 5.27561 2.43813 4.78561 1.82375 4.77998C1.20438 4.77436 0.691875 5.28623 0.696875 5.90561C0.701875 6.51873 1.19375 7.00873 1.80688 7.01123H1.80625Z" fill="#FB8708"/>
</g>
<defs>
<clipPath id="clip0_18_374">
<rect width="16" height="16" fill="white" transform="translate(0 0.938721)"/>
</clipPath>
</defs>
</svg>
