<svg width="73" height="73" viewBox="0 0 73 73" fill="none" xmlns="http://www.w3.org/2000/svg">
<rect width="73" height="73" rx="9.74359" fill="white"/>
<g clip-path="url(#clip0_22_1428)">
<path d="M57.0513 47.52C56.7169 47.4965 56.3825 47.4543 56.0497 47.4543C43.47 47.4512 30.8888 47.4512 18.3091 47.4512C17.9763 47.4512 17.6419 47.4512 17.2591 47.4512V45.8715H26.0778C25.7919 45.6465 25.6731 45.5497 25.5497 45.4575C24.5856 44.7262 24.2997 43.5278 24.9263 42.4731C25.4966 41.5137 26.1309 40.5887 26.7888 39.6871C27.1044 39.2543 27.1231 38.8934 26.9278 38.4106C26.5013 37.3512 26.1731 36.2512 25.7403 35.195C25.2497 33.995 25.0544 32.8028 25.5497 31.5278C24.8372 32.5637 23.97 33.3668 22.7466 33.6825C21.5059 34.0028 20.3278 33.8465 19.2403 33.1512C17.4809 32.0278 16.7622 29.8387 17.5059 27.8856C18.2247 25.9965 20.2231 24.7887 22.1403 25.0856C24.6231 25.47 25.8184 27.0825 25.9763 30.3575C26.7606 28.87 27.8934 28.0247 29.5419 28.1418C30.0934 28.1809 30.6653 28.3621 31.1653 28.6059C39.1778 32.5184 47.1794 36.4496 55.1841 40.3778C56.3059 40.9278 56.97 41.7918 56.9403 43.0825C56.9091 44.4153 56.1497 45.2246 54.9575 45.8371C55.2934 45.8371 55.6309 45.8418 55.9669 45.8371C56.3294 45.8309 56.6903 45.8121 57.0528 45.7997V47.5184L57.0513 47.52ZM29.2497 29.6137C28.8606 29.8043 28.4013 29.9403 28.0513 30.2168C27.2513 30.8481 26.6778 33.0497 27.02 34.0293C27.5434 35.5247 28.0653 37.0215 28.6419 38.4965C28.8794 39.1028 28.8075 39.5684 28.4325 40.0825C27.7606 41.0059 27.1466 41.9731 26.4981 42.9153C26.2216 43.3168 25.9169 43.7403 26.4294 44.1387C26.9575 44.5497 27.3419 44.1918 27.6638 43.7715C28.4841 42.6981 29.2747 41.5996 30.1294 40.5543C30.5841 39.9965 30.7138 39.4762 30.495 38.7715C30.1434 37.6309 29.8919 36.459 29.6075 35.2981C29.4809 34.7809 29.695 34.334 30.1934 34.3153C30.4981 34.3028 30.8559 34.6512 31.1184 34.9106C31.2622 35.0528 31.2919 35.3434 31.3106 35.5731C31.3606 36.1637 31.7028 36.3684 32.2403 36.5231C35.2247 37.384 38.2403 38.1622 41.1591 39.2106C45.3013 40.6981 49.3669 42.3965 53.4684 43.9997C54.2934 44.3215 54.9794 44.1059 55.2653 43.4668C55.5622 42.7997 55.2888 42.2122 54.4388 41.795C46.4372 37.8653 38.4341 33.9387 30.4278 30.0215C30.0856 29.8543 29.7044 29.77 29.2481 29.6168L29.2497 29.6137ZM32.2653 38.2403C32.1341 39.1059 32.2544 40.1309 31.8247 40.7965C30.6856 42.5622 29.3075 44.1731 28.0747 45.7809H53.3716C46.3356 43.0403 39.4997 39.7887 32.2669 38.2387L32.2653 38.2403ZM21.5669 32.2325C23.1497 32.2403 24.3763 31.0137 24.37 29.4325C24.3638 27.8934 23.1466 26.6684 21.6106 26.6543C20.0622 26.6403 18.7809 27.92 18.7934 29.4684C18.8059 31.0012 20.0356 32.2262 21.5684 32.2325H21.5669Z" fill="#2D2D2D"/>
</g>
<defs>
<clipPath id="clip0_22_1428">
<rect width="40" height="40" fill="white" transform="translate(17.0513 17.0513)"/>
</clipPath>
</defs>
</svg>
