<svg width="73" height="73" viewBox="0 0 73 73" fill="none" xmlns="http://www.w3.org/2000/svg">
<rect width="73" height="73" rx="9.74359" fill="white"/>
<path d="M35.3106 42.3934C34.545 43.4716 33.8122 44.5044 33.0794 45.5372C32.2763 46.67 31.1856 47.3028 29.795 47.32C27.5388 47.3466 25.2825 47.3575 23.0278 47.32C21.5528 47.295 20.4747 46.3106 20.2856 44.945C20.0966 43.5778 20.8513 42.3325 22.1622 41.9153C22.4997 41.8075 22.8731 41.7794 23.231 41.7762C24.8638 41.7622 26.4997 41.7966 28.131 41.7466C28.4466 41.7372 28.8653 41.5137 29.0466 41.2544C29.7888 40.1934 30.4997 39.1059 31.1341 37.9794C31.456 37.4059 31.5216 36.6919 31.8278 36.1059C32.3653 35.0731 32.9903 34.0872 33.5919 33.0887C34.2044 32.0716 34.831 31.0622 35.506 29.9622C34.8294 29.7419 34.2325 29.5028 33.6122 29.37C33.3872 29.3231 33.0747 29.4856 32.8606 29.6356C31.6481 30.4794 30.4794 31.3872 29.2419 32.1919C28.695 32.5481 28.0419 32.8512 27.4044 32.9341C26.4763 33.0559 25.7716 32.5184 25.32 31.7122C24.8575 30.8872 24.9075 30.0591 25.481 29.3075C25.745 28.9622 26.0685 28.645 26.42 28.3887C28.0278 27.2075 29.6591 26.0559 31.2731 24.8841C32.0247 24.3372 32.8106 24.1106 33.7528 24.3309C35.77 24.8028 37.8591 25.0403 39.8091 25.6997C41.7544 26.3575 43.6013 27.2809 44.2372 29.6403C44.6575 31.2012 45.4466 32.6637 46.1153 34.1512C46.2091 34.3606 46.5575 34.5716 46.7966 34.5809C47.9872 34.6247 49.181 34.5919 50.3747 34.6044C51.8606 34.62 52.895 35.6028 52.8935 36.9794C52.8919 38.3544 51.8575 39.3356 50.3669 39.3466C48.6044 39.3591 46.8403 39.3403 45.0763 39.3528C43.9669 39.3606 43.1997 38.8512 42.7294 37.8731C42.3841 37.1559 42.0591 36.4278 41.6497 35.5372C41.1981 36.4137 40.7903 37.145 40.456 37.9091C40.3935 38.0512 40.5747 38.3778 40.731 38.5231C41.7231 39.4356 42.7341 40.3278 43.7528 41.2106C44.7169 42.0466 45.0919 43.0184 44.8122 44.3216C44.27 46.8528 43.906 49.4231 43.3278 51.945C42.9372 53.6481 41.6638 54.7231 40.1263 54.4606C38.5716 54.195 37.5435 52.7919 37.8231 51.2262C38.1591 49.3403 38.506 47.4528 38.9278 45.5841C39.0825 44.8997 38.9169 44.5575 38.32 44.2309C37.3216 43.6856 36.3731 43.0497 35.3138 42.395L35.3106 42.3934ZM33.1981 27.5512C34.3669 27.9153 35.4544 28.2497 36.5372 28.595C37.5981 28.9325 37.7513 29.3466 37.1591 30.3075C35.9903 32.2028 34.8122 34.0919 33.6356 35.9825C32.5403 37.7434 32.8325 39.0356 34.5794 40.1044C36.3231 41.1716 38.0513 42.27 39.8263 43.2856C40.6091 43.7325 40.8278 44.2419 40.6341 45.12C40.1778 47.1919 39.8075 49.2841 39.4216 51.3716C39.2825 52.1278 39.6028 52.6809 40.2138 52.8466C40.8731 53.0262 41.4153 52.7653 41.6731 52.0419C41.8419 51.5684 41.8888 51.0512 41.9841 50.5512C42.4138 48.3137 42.8278 46.0731 43.2825 43.8419C43.395 43.2887 43.2716 42.8966 42.8528 42.5372C41.9106 41.7247 40.9794 40.8997 40.056 40.0669C38.0388 38.2497 38.2185 38.8106 39.3716 36.4669C40.3544 34.47 41.3778 32.495 42.37 30.5044C42.7106 29.82 42.6356 29.0981 42.031 28.6762C41.1919 28.0887 40.2872 27.495 39.32 27.2169C37.4091 26.6684 35.4403 26.3091 33.4841 25.9341C33.1013 25.8606 32.5841 25.9497 32.2669 26.1669C30.5544 27.3341 28.8888 28.5684 27.1997 29.77C26.7247 30.1075 26.3935 30.5122 26.7888 31.0591C27.195 31.6216 27.6825 31.3794 28.1403 31.0481C29.5669 30.0137 30.9966 28.9841 32.4325 27.9637C32.6763 27.7903 32.9606 27.6762 33.195 27.5512H33.1981ZM31.8935 39.7966C31.2856 40.7512 30.6794 41.6559 30.1263 42.5903C29.7997 43.1419 29.3935 43.3747 28.7388 43.3606C26.8731 43.3247 25.006 43.3387 23.1403 43.3544C22.3419 43.3606 21.87 43.8091 21.8528 44.5059C21.8341 45.2419 22.306 45.7137 23.1481 45.72C25.3513 45.7356 27.556 45.7653 29.7575 45.6934C30.3044 45.6762 31.0075 45.4434 31.3481 45.0544C32.2919 43.9762 33.081 42.7637 33.906 41.6387C33.1919 40.9841 32.5653 40.4106 31.8935 39.7966ZM43.4638 32.0262C42.8294 33.0398 42.7382 34.046 43.1903 35.045C43.4872 35.7044 43.7888 36.3606 44.0747 37.0262C44.2919 37.5325 44.6294 37.7809 45.2091 37.7716C46.8903 37.7481 48.5716 37.7575 50.2528 37.7653C50.7997 37.7684 51.2716 37.6497 51.2888 37.0028C51.306 36.3059 50.8185 36.1762 50.2356 36.1809C48.8903 36.1903 47.545 36.1512 46.2013 36.1966C45.4606 36.2216 45.0622 35.9247 44.8075 35.2512C44.406 34.1919 43.9388 33.1559 43.4653 32.0278L43.4638 32.0262Z" fill="#2D2D2D"/>
<path d="M44.97 26.5966C42.7763 26.6106 41.0044 24.8794 40.9763 22.6919C40.9466 20.4747 42.7138 18.6559 44.9169 18.6372C47.0919 18.6184 48.9403 20.4591 48.9341 22.6388C48.9278 24.8028 47.1466 26.5825 44.9716 26.5966H44.97ZM44.9685 25.0044C46.2794 24.9934 47.3325 23.9309 47.3278 22.62C47.3232 21.3106 46.2638 20.2528 44.9528 20.2466C43.6075 20.2403 42.5466 21.32 42.5653 22.6747C42.5841 23.9903 43.6403 25.0138 44.9685 25.0028V25.0044Z" fill="#2D2D2D"/>
</svg>
