<svg width="16" height="16" viewBox="0 0 16 16" fill="none" xmlns="http://www.w3.org/2000/svg">
<path d="M7.30375 10.1369C6.9975 10.5681 6.70438 10.9812 6.41125 11.3944C6.09 11.8475 5.65375 12.1006 5.0975 12.1075C4.195 12.1181 3.2925 12.1225 2.39062 12.1075C1.80062 12.0975 1.36937 11.7037 1.29375 11.1575C1.21812 10.6106 1.52 10.1125 2.04437 9.94561C2.17937 9.90249 2.32875 9.89124 2.47187 9.88999C3.125 9.88437 3.77938 9.89811 4.43187 9.87811C4.55813 9.87436 4.72562 9.78499 4.79812 9.68124C5.095 9.25686 5.37937 8.82186 5.63312 8.37124C5.76187 8.14186 5.78813 7.85624 5.91062 7.62186C6.12563 7.20874 6.37563 6.81436 6.61625 6.41499C6.86125 6.00811 7.11188 5.60436 7.38188 5.16436C7.11125 5.07624 6.8725 4.98061 6.62437 4.92749C6.53437 4.90874 6.40938 4.97374 6.32375 5.03374C5.83875 5.37124 5.37125 5.73436 4.87625 6.05624C4.6575 6.19874 4.39625 6.31999 4.14125 6.35311C3.77 6.40186 3.48812 6.18686 3.3075 5.86436C3.1225 5.53436 3.1425 5.20311 3.37187 4.90249C3.4775 4.76436 3.60687 4.63749 3.7475 4.53499C4.39062 4.06249 5.04312 3.60186 5.68875 3.13311C5.98937 2.91436 6.30375 2.82374 6.68062 2.91186C7.4875 3.10061 8.32312 3.19561 9.10312 3.45936C9.88125 3.72249 10.62 4.09186 10.8744 5.03561C11.0425 5.65999 11.3581 6.24499 11.6256 6.83999C11.6631 6.92374 11.8025 7.00811 11.8981 7.01186C12.3744 7.02936 12.8519 7.01624 13.3294 7.02124C13.9237 7.02749 14.3375 7.42061 14.3369 7.97124C14.3363 8.52124 13.9225 8.91374 13.3263 8.91811C12.6213 8.92311 11.9156 8.91561 11.21 8.92061C10.7662 8.92374 10.4594 8.71999 10.2712 8.32874C10.1331 8.04186 10.0031 7.75061 9.83937 7.39436C9.65875 7.74499 9.49562 8.03749 9.36187 8.34311C9.33687 8.39999 9.40938 8.53061 9.47188 8.58874C9.86875 8.95374 10.2731 9.31061 10.6806 9.66374C11.0662 9.99811 11.2162 10.3869 11.1044 10.9081C10.8875 11.9206 10.7419 12.9487 10.5106 13.9575C10.3544 14.6387 9.845 15.0687 9.23 14.9637C8.60812 14.8575 8.19688 14.2962 8.30875 13.67C8.44313 12.9156 8.58187 12.1606 8.75062 11.4131C8.8125 11.1394 8.74625 11.0025 8.5075 10.8719C8.10812 10.6537 7.72875 10.3994 7.305 10.1375L7.30375 10.1369ZM6.45875 4.19999C6.92625 4.34561 7.36125 4.47936 7.79437 4.61749C8.21875 4.75249 8.28 4.91811 8.04313 5.30249C7.57562 6.06061 7.10437 6.81624 6.63375 7.57249C6.19562 8.27687 6.3125 8.79374 7.01125 9.22124C7.70875 9.64811 8.4 10.0875 9.11 10.4937C9.42312 10.6725 9.51062 10.8762 9.43312 11.2275C9.25062 12.0562 9.1025 12.8931 8.94812 13.7281C8.8925 14.0306 9.02063 14.2519 9.265 14.3181C9.52875 14.39 9.74563 14.2856 9.84875 13.9962C9.91625 13.8069 9.935 13.6 9.97313 13.4C10.145 12.505 10.3106 11.6087 10.4925 10.7162C10.5375 10.495 10.4881 10.3381 10.3206 10.1944C9.94375 9.86936 9.57125 9.53936 9.20187 9.20624C8.395 8.47936 8.46688 8.70374 8.92813 7.76624C9.32125 6.96749 9.73062 6.17749 10.1275 5.38124C10.2637 5.10749 10.2337 4.81874 9.99187 4.64999C9.65625 4.41499 9.29438 4.17749 8.9075 4.06624C8.14313 3.84686 7.35563 3.70311 6.57312 3.55311C6.42 3.52374 6.21312 3.55936 6.08625 3.64624C5.40125 4.11311 4.735 4.60686 4.05937 5.08749C3.86937 5.22249 3.73687 5.38436 3.895 5.60311C4.0575 5.82811 4.2525 5.73124 4.43562 5.59874C5.00625 5.18499 5.57812 4.77311 6.1525 4.36499C6.25 4.29561 6.36375 4.24999 6.4575 4.19999H6.45875ZM5.93687 9.09811C5.69375 9.47999 5.45125 9.84186 5.23 10.2156C5.09937 10.4362 4.93687 10.5294 4.675 10.5237C3.92875 10.5094 3.18187 10.515 2.43562 10.5212C2.11625 10.5237 1.9275 10.7031 1.92062 10.9819C1.91312 11.2762 2.10187 11.465 2.43875 11.4675C3.32 11.4737 4.20187 11.4856 5.0825 11.4569C5.30125 11.45 5.5825 11.3569 5.71875 11.2012C6.09625 10.77 6.41188 10.285 6.74188 9.83499C6.45625 9.57311 6.20563 9.34374 5.93687 9.09811ZM10.565 5.98999C10.3112 6.39541 10.2748 6.79791 10.4556 7.19749C10.5744 7.46124 10.695 7.72374 10.8094 7.98999C10.8962 8.19249 11.0312 8.29186 11.2631 8.28811C11.9356 8.27874 12.6081 8.28249 13.2806 8.28561C13.4994 8.28686 13.6881 8.23936 13.695 7.98061C13.7019 7.70186 13.5069 7.64999 13.2738 7.65186C12.7356 7.65561 12.1975 7.63999 11.66 7.65811C11.3637 7.66811 11.2044 7.54936 11.1025 7.27999C10.9419 6.85624 10.755 6.44186 10.5656 5.99061L10.565 5.98999Z" fill="#FB8708"/>
<path d="M11.1675 3.81811C10.29 3.82374 9.58125 3.13124 9.57 2.25624C9.55812 1.36936 10.265 0.641865 11.1462 0.634365C12.0162 0.626865 12.7556 1.36311 12.7531 2.23499C12.7506 3.10061 12.0381 3.81249 11.1681 3.81811H11.1675ZM11.1669 3.18124C11.6912 3.17686 12.1125 2.75186 12.1106 2.22749C12.1087 1.70374 11.685 1.28061 11.1606 1.27811C10.6225 1.27561 10.1981 1.70749 10.2056 2.24936C10.2131 2.77561 10.6356 3.18499 11.1669 3.18061V3.18124Z" fill="#FB8708"/>
</svg>
